<svg xmlns="http://www.w3.org/2000/svg" xmlns:xlink="http://www.w3.org/1999/xlink" width="500" zoomAndPan="magnify" viewBox="0 0 375 374.999991" height="500" preserveAspectRatio="xMidYMid meet" version="1.0"><defs><clipPath id="0276b2c3c2"><path d="M 352 28.359375 L 357 28.359375 L 357 32 L 352 32 Z M 352 28.359375 " clip-rule="nonzero"/></clipPath></defs><g clip-path="url(#0276b2c3c2)"><path fill="#560e0e" d="M 352.984375 29.199219 C 352.125 30.0625 353.136719 31.230469 354.761719 31.230469 C 356.285156 31.230469 356.894531 30.367188 356.03125 29.351562 C 355.269531 28.4375 353.847656 28.335938 352.984375 29.199219 Z M 352.984375 29.199219 " fill-opacity="1" fill-rule="nonzero"/></g><path fill="#560e0e" d="M 207.488281 38.4375 C 206.980469 39.453125 206.371094 40.316406 206.015625 40.316406 C 205.710938 40.265625 204.136719 39.707031 202.5625 38.996094 C 199.261719 37.578125 198.296875 37.730469 198.296875 39.605469 C 198.296875 40.621094 198.753906 41.128906 200.632812 41.941406 C 201.953125 42.550781 203.121094 43.210938 203.273438 43.464844 C 203.425781 43.667969 203.273438 44.734375 202.96875 45.800781 C 202.664062 46.816406 202.5625 48.085938 202.714844 48.59375 C 203.273438 50.015625 204.441406 48.695312 205.152344 45.851562 C 205.761719 43.464844 205.8125 43.414062 207.488281 43.71875 C 213.882812 45.039062 215 44.53125 210.535156 42.449219 C 208.453125 41.484375 207.996094 41.078125 208.65625 40.722656 C 209.570312 40.214844 209.824219 36.5625 208.910156 36.5625 C 208.605469 36.5625 207.996094 37.425781 207.488281 38.4375 Z M 207.488281 38.4375 " fill-opacity="1" fill-rule="nonzero"/><path fill="#560e0e" d="M 372.175781 38.285156 C 371.210938 39.25 371.363281 40.316406 372.53125 40.316406 C 373.699219 40.316406 374.96875 38.996094 374.460938 38.183594 C 374.003906 37.476562 372.9375 37.527344 372.175781 38.285156 Z M 372.175781 38.285156 " fill-opacity="1" fill-rule="nonzero"/><path fill="#560e0e" d="M 360.855469 42.144531 C 360.5 42.601562 360.347656 43.3125 360.5 43.769531 C 361.109375 45.34375 363.75 44.328125 363.445312 42.652344 C 363.191406 41.382812 361.769531 41.078125 360.855469 42.144531 Z M 360.855469 42.144531 " fill-opacity="1" fill-rule="nonzero"/><path fill="#560e0e" d="M 130.726562 42.804688 C 130.523438 43.3125 130.777344 43.972656 131.4375 44.429688 C 132.960938 45.648438 138.75 48.289062 139.714844 48.289062 C 140.222656 48.289062 141.589844 49.710938 142.808594 51.386719 C 143.976562 53.058594 145.449219 54.734375 146.007812 55.089844 C 146.617188 55.496094 147.125 56.15625 147.125 56.613281 C 147.125 57.425781 146.058594 57.375 142.605469 56.257812 C 138.953125 55.089844 135.398438 56.105469 133.46875 58.898438 C 132.25 60.574219 133.316406 60.269531 135.09375 58.441406 C 136.972656 56.511719 138.902344 56.359375 141.742188 58.035156 L 143.773438 59.203125 L 141.640625 61.742188 C 139.105469 64.738281 137.328125 65.398438 133.519531 64.6875 C 129.355469 63.925781 128.898438 63.976562 128.238281 64.992188 C 127.78125 65.753906 127.832031 66.058594 128.441406 66.414062 C 129.507812 67.070312 136.71875 66.511719 139.003906 65.601562 C 140.726562 64.890625 140.777344 64.890625 141.539062 66.714844 C 141.945312 67.730469 142.300781 69.863281 142.300781 71.4375 C 142.300781 74.027344 142.453125 74.382812 143.519531 74.738281 C 144.179688 74.941406 145.652344 75.804688 146.820312 76.617188 C 149.105469 78.292969 150.832031 78.648438 150.832031 77.378906 C 150.832031 76.566406 148.34375 74.535156 145.652344 73.164062 C 144.078125 72.351562 143.875 71.996094 143.875 70.015625 C 143.875 68.796875 143.621094 66.816406 143.367188 65.652344 C 142.859375 63.570312 142.910156 63.417969 144.941406 61.488281 C 147.226562 59.355469 148.851562 59 150.730469 60.320312 C 152.507812 61.589844 153.320312 63.621094 153.675781 67.730469 C 154.03125 71.691406 154.535156 72.65625 155.90625 72.097656 C 156.820312 71.742188 156.820312 70.117188 155.804688 66.511719 C 155.550781 65.601562 156.210938 66.007812 158.445312 68.238281 C 161.441406 71.234375 163.675781 72.300781 165.148438 71.386719 C 166.773438 70.371094 166.417969 69.609375 164.4375 69.609375 C 161.949219 69.609375 159.816406 68.390625 158.546875 66.261719 C 157.074219 63.773438 153.523438 60.066406 151.695312 59.152344 L 150.070312 58.289062 L 151.644531 57.019531 C 155.042969 54.226562 158.34375 52.90625 162.050781 52.855469 C 165.707031 52.855469 166.621094 53.261719 171.1875 56.917969 C 173.269531 58.59375 173.726562 57.679688 171.847656 55.699219 C 169.96875 53.769531 166.265625 51.792969 163.472656 51.285156 C 160.984375 50.828125 156.3125 51.742188 152.507812 53.464844 C 150.882812 54.125 149.5625 54.683594 149.511719 54.582031 C 149.460938 54.480469 148.902344 53.566406 148.242188 52.449219 C 146.667969 49.914062 144.839844 48.441406 142.148438 47.730469 C 140.929688 47.425781 139.359375 46.410156 138.394531 45.34375 C 136.769531 43.617188 133.570312 41.890625 131.894531 41.890625 C 131.4375 41.890625 130.929688 42.296875 130.726562 42.804688 Z M 130.726562 42.804688 " fill-opacity="1" fill-rule="nonzero"/><path fill="#560e0e" d="M 154.335938 44.886719 C 153.117188 46.105469 154.234375 47.425781 156.109375 46.96875 C 158.089844 46.511719 158.597656 45.851562 157.785156 44.886719 C 156.871094 43.820312 155.398438 43.820312 154.335938 44.886719 Z M 154.335938 44.886719 " fill-opacity="1" fill-rule="nonzero"/><path fill="#560e0e" d="M 357.503906 49.203125 C 356.691406 50.015625 357.199219 51.589844 358.519531 52.148438 C 359.6875 52.703125 359.992188 52.652344 360.601562 51.84375 C 361.160156 51.132812 361.210938 50.523438 360.804688 49.863281 C 360.296875 48.898438 358.214844 48.492188 357.503906 49.203125 Z M 357.503906 49.203125 " fill-opacity="1" fill-rule="nonzero"/><path fill="#560e0e" d="M 128.289062 57.425781 C 127.222656 58.035156 127.070312 59.558594 127.984375 60.472656 C 128.847656 61.335938 130.066406 60.269531 130.066406 58.695312 C 130.066406 57.171875 129.507812 56.765625 128.289062 57.425781 Z M 128.289062 57.425781 " fill-opacity="1" fill-rule="nonzero"/><path fill="#560e0e" d="M 355.523438 57.679688 C 355.523438 57.832031 356.082031 58.695312 356.691406 59.558594 L 357.910156 61.183594 L 356.691406 63.265625 C 355.269531 65.703125 355.574219 65.855469 357.960938 64.027344 C 360.195312 62.351562 360.804688 62.351562 363.242188 64.28125 C 364.359375 65.195312 365.476562 65.90625 365.730469 65.90625 C 366.488281 65.90625 366.238281 64.179688 365.273438 63.113281 C 364.460938 62.199219 364.460938 62.046875 365.273438 60.625 C 366.1875 59.050781 366.488281 57.375 365.832031 57.375 C 365.628906 57.375 364.816406 57.984375 364.003906 58.746094 L 362.582031 60.117188 L 359.890625 58.746094 C 357.300781 57.476562 355.523438 57.019531 355.523438 57.679688 Z M 355.523438 57.679688 " fill-opacity="1" fill-rule="nonzero"/><path fill="#560e0e" d="M 90.925781 58.796875 C 90.316406 59.457031 90.570312 61.132812 91.382812 61.4375 C 92.449219 61.84375 93.820312 60.726562 93.820312 59.457031 C 93.820312 58.746094 93.414062 58.441406 92.550781 58.441406 C 91.890625 58.441406 91.128906 58.59375 90.925781 58.796875 Z M 90.925781 58.796875 " fill-opacity="1" fill-rule="nonzero"/><path fill="#560e0e" d="M 331.003906 67.019531 C 322.730469 67.933594 311.558594 71.488281 305.367188 75.246094 C 302.066406 77.277344 300.085938 79.867188 297.648438 85.347656 C 293.488281 94.738281 292.777344 104.996094 295.621094 114.894531 C 296.835938 119.160156 297.039062 117.839844 296.074219 112.457031 C 294.910156 106.367188 295.265625 97.226562 296.886719 91.492188 C 298.003906 87.582031 301.304688 79.5625 302.269531 78.394531 C 303.285156 77.125 318.667969 85.804688 323.746094 90.476562 C 324 90.730469 322.222656 93.421875 319.632812 96.71875 C 311.152344 107.484375 305.46875 116.671875 303.792969 122.257812 C 303.4375 123.523438 302.980469 124.539062 302.777344 124.539062 C 302.21875 124.539062 299.933594 122.867188 298.105469 121.140625 C 296.378906 119.566406 296.328125 119.566406 295.621094 120.582031 C 295.164062 121.140625 293.742188 123.726562 292.371094 126.316406 C 290.035156 130.835938 289.984375 131.039062 290.746094 132.5625 C 291.558594 134.035156 291.507812 134.136719 290.238281 135 C 288.308594 136.269531 288.460938 137.382812 290.492188 136.828125 C 291.355469 136.574219 292.574219 135.964844 293.285156 135.507812 C 294.808594 134.390625 296.886719 134.390625 296.886719 135.507812 C 296.886719 136.980469 293.792969 140.886719 292.117188 141.597656 C 291.253906 141.953125 290.644531 142.460938 290.796875 142.714844 C 291.152344 143.273438 294.808594 143.324219 295.621094 142.765625 C 296.683594 142.054688 297.34375 140.277344 297.039062 138.652344 C 296.785156 137.332031 296.886719 137.179688 297.445312 137.738281 C 299.070312 139.261719 300.695312 138.5 304.453125 134.441406 L 308.160156 130.480469 L 315.214844 130.734375 C 328.820312 131.34375 343.136719 127.6875 353.492188 121.039062 C 357.097656 118.753906 360.957031 114.335938 361.617188 111.746094 C 361.921875 110.628906 361.871094 110.578125 361.363281 111.339844 C 360.550781 112.710938 359.433594 112.507812 357.503906 110.679688 C 356.539062 109.816406 354.710938 108.347656 353.390625 107.433594 L 350.957031 105.757812 L 352.175781 103.269531 C 353.59375 100.375 354.863281 92.710938 355.421875 83.773438 L 355.777344 77.378906 L 358.011719 81.894531 C 361.515625 89.003906 362.175781 92 362.175781 101.796875 C 362.175781 109.511719 362.226562 110.070312 362.886719 107.941406 C 363.902344 104.4375 364.460938 96.007812 364.003906 91.1875 C 363.394531 85.347656 361.921875 81.589844 358.0625 76.464844 C 355.015625 72.402344 354.507812 72.046875 349.992188 69.863281 C 343.289062 66.664062 339.53125 66.109375 331.003906 67.019531 Z M 347.25 70.929688 C 348.722656 71.386719 350.398438 72.046875 350.90625 72.453125 C 351.820312 73.113281 351.566406 73.367188 347.960938 75.601562 C 345.828125 76.921875 340.800781 80.070312 336.894531 82.554688 C 327.90625 88.191406 326.179688 88.800781 322.933594 87.378906 C 321.664062 86.769531 318.921875 84.941406 316.890625 83.265625 C 314.808594 81.640625 311.507812 79.460938 309.53125 78.496094 L 305.875 76.769531 L 312.421875 74.585938 C 318.160156 72.65625 326.027344 70.726562 331.257812 69.964844 C 334.457031 69.507812 344.660156 70.117188 347.25 70.929688 Z M 353.289062 80.324219 C 353.542969 89.765625 350.957031 104.285156 349.027344 104.285156 C 348.722656 104.285156 347.351562 103.371094 345.980469 102.203125 C 342.324219 99.105469 332.476562 92.304688 330.496094 91.492188 C 329.582031 91.136719 328.921875 90.578125 328.972656 90.324219 C 329.226562 89.613281 351.972656 74.585938 352.578125 74.6875 C 352.882812 74.738281 353.1875 77.175781 353.289062 80.324219 Z M 331.410156 95.296875 C 337.351562 99.257812 346.488281 106.0625 346.488281 106.519531 C 346.488281 107.535156 335.472656 113.777344 320.800781 121.089844 C 313.792969 124.589844 310.085938 126.722656 310.390625 127.027344 C 311.152344 127.789062 340.597656 113.421875 345.320312 109.917969 C 347.199219 108.550781 348.976562 107.535156 349.332031 107.636719 C 349.6875 107.789062 351.820312 109.207031 354.050781 110.832031 L 358.164062 113.777344 L 355.371094 116.265625 C 351.261719 119.921875 341.207031 124.691406 333.390625 126.722656 C 328.007812 128.144531 325.671875 128.449219 318.667969 128.652344 C 309.785156 128.957031 307.90625 128.652344 305.214844 126.46875 L 303.691406 125.199219 L 306.179688 120.378906 C 307.550781 117.738281 310.1875 113.421875 312.015625 110.730469 C 315.824219 105.199219 326.128906 92.558594 326.839844 92.558594 C 327.09375 92.558594 329.175781 93.777344 331.410156 95.296875 Z M 300.746094 125.199219 C 302.625 126.46875 304.605469 127.738281 305.113281 127.992188 C 305.976562 128.5 305.824219 128.90625 303.640625 132.511719 C 302.269531 134.644531 301.101562 136.675781 301 137.03125 C 300.898438 137.332031 299.476562 136.523438 297.902344 135.152344 C 296.328125 133.78125 294.25 132.308594 293.234375 131.800781 C 291.253906 130.734375 291 131.546875 294.960938 125.503906 C 295.871094 124.082031 296.785156 122.96875 296.9375 122.96875 C 297.140625 122.96875 298.816406 123.980469 300.746094 125.199219 Z M 300.746094 125.199219 " fill-opacity="1" fill-rule="nonzero"/><path fill="#560e0e" d="M 120.625 71.03125 C 120.421875 71.589844 120.675781 72.199219 121.285156 72.65625 C 122.097656 73.265625 122.402344 73.265625 123.011719 72.605469 C 123.46875 72.199219 123.671875 71.488281 123.46875 71.03125 C 123.0625 69.914062 121.03125 69.914062 120.625 71.03125 Z M 120.625 71.03125 " fill-opacity="1" fill-rule="nonzero"/><path fill="#560e0e" d="M 165.351562 76.921875 C 164.996094 77.074219 164.691406 77.683594 164.691406 78.242188 C 164.691406 79.714844 166.519531 79.308594 166.722656 77.785156 C 166.875 76.566406 166.621094 76.414062 165.351562 76.921875 Z M 165.351562 76.921875 " fill-opacity="1" fill-rule="nonzero"/><path fill="#560e0e" d="M 157.632812 77.683594 C 156.261719 78.496094 156.414062 79.867188 157.886719 79.664062 C 158.648438 79.5625 159.15625 79.054688 159.257812 78.292969 C 159.460938 76.972656 159.054688 76.820312 157.632812 77.683594 Z M 157.632812 77.683594 " fill-opacity="1" fill-rule="nonzero"/><path fill="#560e0e" d="M 210.027344 84.636719 C 203.679688 89.96875 199.871094 96.210938 199.871094 101.1875 C 199.871094 103.066406 199.363281 103.066406 197.6875 101.289062 C 193.628906 96.921875 181.902344 91.1875 177.839844 91.59375 C 176.316406 91.746094 176.113281 91.949219 176.011719 93.726562 C 175.859375 94.941406 176.265625 96.515625 176.976562 97.988281 C 178.601562 101.085938 184.335938 106.925781 188.753906 109.96875 L 192.359375 112.457031 L 189.769531 113.675781 C 186.164062 115.351562 182.511719 119.109375 180.632812 123.21875 C 179.3125 126.011719 179.109375 126.824219 179.617188 127.738281 C 181.140625 130.582031 185.554688 130.023438 192.003906 126.164062 C 193.933594 124.996094 195.8125 123.980469 196.117188 123.980469 C 196.421875 123.980469 196.675781 125.046875 196.675781 126.265625 C 196.675781 127.535156 197.128906 130.632812 197.636719 133.222656 C 198.5 137.382812 198.5 137.839844 197.789062 137.535156 C 193.171875 135.507812 189.769531 134.796875 187.941406 135.507812 C 186.417969 136.117188 187.027344 136.777344 189.007812 136.777344 C 191.089844 136.777344 195.761719 139.160156 197.433594 141.039062 C 198.449219 142.105469 198.398438 142.105469 196.320312 142.105469 C 195.203125 142.105469 193.324219 141.699219 192.257812 141.140625 C 189.820312 139.871094 189.71875 140.480469 191.953125 142.410156 C 193.375 143.578125 194.085938 143.78125 195.863281 143.578125 C 197.027344 143.476562 198.398438 143.222656 198.855469 143.019531 C 200.785156 142.105469 202.308594 149.621094 201.394531 155.964844 C 200.074219 165.558594 195 174.140625 182.207031 188.609375 C 176.164062 195.410156 173.015625 199.625 171.035156 203.585938 C 166.976562 211.605469 166.925781 221.710938 170.933594 229.882812 C 172.304688 232.675781 175.808594 237.292969 176.214844 236.835938 C 176.316406 236.734375 175.453125 235.011719 174.335938 232.980469 C 168.09375 222.113281 169.613281 208.964844 178.5 196.78125 C 179.566406 195.308594 182.8125 191.25 185.707031 187.695312 C 195.558594 175.867188 199.058594 170.230469 201.546875 162.363281 C 202.613281 159.011719 202.816406 157.285156 202.765625 151.195312 C 202.765625 145.152344 202.511719 143.019531 201.242188 137.839844 C 199.160156 129.414062 199.160156 124.488281 201.242188 119.617188 C 202.105469 117.636719 202.96875 116.011719 203.121094 116.011719 C 203.324219 116.011719 203.78125 117.128906 204.085938 118.5 C 206.066406 126.265625 211.445312 130.378906 219.722656 130.378906 C 224.546875 130.378906 228.046875 128.09375 227.335938 125.300781 C 226.878906 123.320312 222.109375 118.703125 218.25 116.519531 C 215.203125 114.742188 215.152344 114.691406 216.675781 114.539062 C 219.773438 114.285156 224.140625 113.21875 226.878906 112 C 229.925781 110.628906 234.191406 107.027344 235.359375 104.742188 C 236.019531 103.472656 236.019531 103.167969 235.207031 102.355469 C 233.378906 100.527344 220.433594 102.507812 213.070312 105.757812 C 211.648438 106.367188 210.535156 106.773438 210.535156 106.621094 C 210.535156 106.46875 211.089844 105.605469 211.800781 104.640625 C 213.78125 102 215.253906 98.75 216.117188 95.09375 C 217.589844 88.953125 216.878906 81.335938 214.847656 81.335938 C 214.339844 81.335938 212.15625 82.808594 210.027344 84.636719 Z M 214.289062 87.429688 C 214.289062 93.828125 212.003906 100.121094 208.148438 104.691406 C 205.8125 107.382812 203.933594 107.6875 202.96875 105.605469 C 202.105469 103.675781 203.273438 97.886719 205.253906 94.132812 C 207.03125 90.78125 213.019531 83.875 213.78125 84.332031 C 214.035156 84.484375 214.289062 85.90625 214.289062 87.429688 Z M 183.472656 95.296875 C 192.207031 99.664062 199.363281 105.554688 199.363281 108.347656 C 199.363281 110.375 197.890625 111.339844 195.40625 110.933594 C 188.957031 109.867188 180.582031 101.542969 178.90625 94.539062 C 178.703125 93.726562 178.652344 93.066406 178.804688 93.066406 C 178.957031 93.066406 181.089844 94.082031 183.472656 95.296875 Z M 232.921875 103.878906 C 232.921875 104.234375 231.601562 105.757812 230.027344 107.230469 C 225.105469 111.949219 218.097656 113.726562 210.433594 112.253906 C 207.03125 111.59375 206.777344 111.492188 207.691406 110.78125 C 209.722656 109.207031 218.605469 105.300781 222.363281 104.285156 C 226.878906 103.117188 232.921875 102.863281 232.921875 103.878906 Z M 204.035156 109.765625 C 203.933594 110.527344 203.425781 110.984375 202.664062 111.136719 C 201.699219 111.238281 201.496094 111.035156 201.496094 109.917969 C 201.496094 108.804688 201.75 108.550781 202.816406 108.550781 C 203.933594 108.550781 204.1875 108.753906 204.035156 109.765625 Z M 200.9375 114.183594 C 200.9375 115.199219 196.269531 120.886719 194.390625 122.257812 C 190.886719 124.742188 186.722656 126.671875 184.539062 126.824219 C 182.613281 126.925781 182.5625 126.875 182.714844 125.351562 C 182.964844 123.167969 185.351562 119.363281 187.738281 117.433594 C 190.277344 115.402344 194.59375 113.929688 198.144531 113.878906 C 199.667969 113.878906 200.9375 114.03125 200.9375 114.183594 Z M 213.578125 116.570312 C 217.792969 118.753906 222.261719 122.5625 223.632812 125.199219 C 224.34375 126.519531 224.292969 126.671875 223.277344 127.230469 C 221.703125 128.09375 214.796875 127.992188 212.613281 127.078125 C 211.648438 126.621094 210.230469 125.65625 209.570312 124.945312 C 208.25 123.523438 205.761719 117.28125 205.761719 115.453125 C 205.761719 113.675781 208.859375 114.132812 213.578125 116.570312 Z M 213.578125 116.570312 " fill-opacity="1" fill-rule="nonzero"/><path fill="#560e0e" d="M 97.78125 88.292969 C 96.816406 90.171875 96.714844 90.222656 94.429688 88.800781 C 91.078125 86.769531 89.960938 87.835938 92.753906 90.375 L 94.429688 91.898438 L 93.566406 94.738281 C 92.550781 98.191406 92.5 99.460938 93.464844 99.460938 C 94.277344 99.460938 95.953125 95.90625 95.953125 94.183594 C 95.953125 92.710938 97.324219 93.371094 97.78125 94.992188 C 98.082031 96.363281 99.453125 96.617188 102.246094 95.804688 C 103.464844 95.5 103.414062 95.449219 101.585938 94.539062 C 99.65625 93.625 99.65625 93.625 99.65625 90.171875 C 99.65625 86.363281 99.097656 85.804688 97.78125 88.292969 Z M 97.78125 88.292969 " fill-opacity="1" fill-rule="nonzero"/><path fill="#560e0e" d="M 271.097656 96.667969 C 269.980469 97.582031 269.21875 97.886719 268.40625 97.582031 C 267.796875 97.378906 266.277344 97.125 265.058594 96.972656 C 262.417969 96.667969 262.011719 97.53125 264.398438 98.34375 C 266.125 98.953125 266.328125 99.613281 265.160156 101.59375 C 263.484375 104.539062 264.652344 105.199219 267.039062 102.660156 C 267.847656 101.796875 268.710938 101.085938 268.914062 101.085938 C 269.167969 101.085938 270.132812 101.695312 271.097656 102.40625 C 272.722656 103.675781 274.5 104.183594 274.5 103.371094 C 274.5 103.167969 273.839844 102.355469 273.078125 101.542969 C 271.859375 100.273438 271.757812 99.867188 272.214844 98.851562 C 273.839844 95.449219 273.433594 94.640625 271.097656 96.667969 Z M 271.097656 96.667969 " fill-opacity="1" fill-rule="nonzero"/><path fill="#560e0e" d="M 148.699219 111.746094 C 148.242188 112.609375 148.34375 113.066406 149.460938 114.132812 C 150.882812 115.605469 152.355469 115.859375 153.371094 114.84375 C 154.386719 113.828125 154.132812 112.40625 152.863281 111.492188 C 151.1875 110.375 149.359375 110.476562 148.699219 111.746094 Z M 148.699219 111.746094 " fill-opacity="1" fill-rule="nonzero"/><path fill="#560e0e" d="M 249.167969 128.855469 C 246.832031 130.632812 246.273438 131.445312 247.492188 131.445312 C 248.558594 131.445312 248.914062 132.5625 248.253906 133.78125 C 247.542969 135.203125 248.050781 135.40625 249.929688 134.441406 C 250.894531 133.933594 252.113281 133.730469 252.925781 133.933594 C 254.191406 134.238281 254.242188 134.1875 254.242188 131.597656 C 254.242188 129.71875 253.9375 128.703125 253.28125 128.09375 C 251.960938 126.925781 251.65625 126.976562 249.167969 128.855469 Z M 251.605469 130.988281 C 251.605469 131.242188 251.199219 131.445312 250.792969 131.445312 C 249.980469 131.445312 249.726562 130.835938 250.335938 130.226562 C 250.742188 129.820312 251.605469 130.277344 251.605469 130.988281 Z M 251.605469 130.988281 " fill-opacity="1" fill-rule="nonzero"/><path fill="#560e0e" d="M 77.980469 132.257812 C 77.523438 133.476562 78.183594 134.644531 79.300781 134.644531 C 80.621094 134.644531 81.738281 133.324219 81.332031 132.257812 C 80.925781 131.242188 78.386719 131.242188 77.980469 132.257812 Z M 77.980469 132.257812 " fill-opacity="1" fill-rule="nonzero"/><path fill="#560e0e" d="M 286.683594 134.542969 C 285.871094 135.507812 282.519531 141.394531 282.519531 141.851562 C 282.519531 142.5625 284.09375 141.34375 284.398438 140.328125 C 284.601562 139.71875 285.566406 138.144531 286.582031 136.878906 C 287.546875 135.558594 288.359375 134.289062 288.359375 134.035156 C 288.359375 133.324219 287.496094 133.527344 286.683594 134.542969 Z M 286.683594 134.542969 " fill-opacity="1" fill-rule="nonzero"/><path fill="#560e0e" d="M 146.617188 142.003906 C 145.652344 142.96875 144.890625 144.492188 144.484375 146.320312 C 143.113281 152.816406 144.128906 157.792969 148.445312 165.8125 C 151.136719 170.839844 152.914062 176.324219 152.964844 179.472656 L 152.964844 180.839844 L 149.105469 180.027344 C 142.351562 178.660156 140.121094 180.433594 146.109375 182.414062 C 148.597656 183.226562 148.75 183.378906 147.9375 184.191406 C 146.769531 185.308594 142.046875 185.207031 139.765625 184.039062 C 137.582031 182.921875 137.328125 182.972656 138.039062 184.242188 C 138.851562 185.714844 142.402344 187.441406 144.738281 187.441406 C 147.023438 187.441406 148.292969 186.832031 151.085938 184.292969 L 153.21875 182.414062 L 153.726562 183.988281 C 154.03125 184.851562 155.601562 188.101562 157.175781 191.148438 C 160.578125 197.644531 160.832031 199.929688 158.851562 205.3125 C 156.160156 212.46875 156.058594 214.753906 158.597656 211.808594 C 160.578125 209.472656 162.203125 203.535156 161.949219 199.269531 C 161.746094 196.121094 161.339844 194.851562 158.648438 189.625 C 155.855469 184.191406 155.449219 183.074219 154.585938 177.390625 C 153.574219 170.839844 153.625 170.535156 154.890625 162.3125 C 155.5 158.402344 155.550781 156.675781 155.144531 155.050781 C 154.535156 152.765625 148.800781 140.53125 148.34375 140.53125 C 148.191406 140.53125 147.429688 141.191406 146.617188 142.003906 Z M 150.578125 149.46875 C 152.609375 154.542969 152.609375 154.796875 152.761719 162.667969 L 152.914062 170.636719 L 151.136719 166.929688 C 148.34375 161.246094 146.972656 156.675781 146.71875 152.207031 C 146.464844 148.300781 147.175781 144.238281 148.140625 144.238281 C 148.34375 144.238281 149.460938 146.625 150.578125 149.46875 Z M 150.578125 149.46875 " fill-opacity="1" fill-rule="nonzero"/><path fill="#560e0e" d="M 98.589844 149.570312 C 98.183594 150.332031 98.285156 150.789062 98.945312 151.445312 C 100.0625 152.5625 102.5 152.308594 102.753906 151.042969 C 103.210938 148.757812 99.707031 147.539062 98.589844 149.570312 Z M 98.589844 149.570312 " fill-opacity="1" fill-rule="nonzero"/><path fill="#560e0e" d="M 277.800781 155.507812 C 272.011719 161.296875 270.894531 165.359375 272.46875 174.597656 C 273.027344 177.796875 272.976562 178.609375 272.214844 180.535156 C 270.640625 184.597656 272.367188 184.851562 276.785156 181.195312 C 281.152344 177.542969 283.839844 173.683594 285.363281 168.859375 C 286.378906 165.660156 286.886719 164.75 287.75 164.597656 C 288.359375 164.546875 292.269531 165.558594 296.480469 166.929688 C 303.945312 169.367188 309.984375 170.28125 311.101562 169.113281 C 311.355469 168.859375 310.847656 168.148438 309.984375 167.539062 C 309.125 166.878906 306.6875 164.953125 304.503906 163.175781 C 302.371094 161.449219 299.832031 159.46875 298.917969 158.808594 C 295.820312 156.523438 291.507812 157.589844 288.15625 161.347656 L 286.378906 163.429688 L 285.464844 159.875 C 284.449219 155.914062 282.671875 152.257812 281.660156 152.257812 C 281.355469 152.257812 279.578125 153.730469 277.800781 155.507812 Z M 281.960938 157.386719 C 284.296875 165.054688 283.027344 172.464844 278.5625 176.933594 C 275.058594 180.433594 274.753906 180.382812 274.703125 176.324219 C 274.703125 174.394531 274.449219 171.195312 274.246094 169.214844 C 273.839844 165.914062 273.941406 165.40625 275.464844 162.160156 C 276.886719 159.113281 280.1875 153.832031 280.695312 153.832031 C 280.796875 153.832031 281.355469 155.457031 281.960938 157.386719 Z M 299.324219 162.109375 C 300.746094 162.871094 302.929688 164.292969 304.097656 165.308594 C 305.976562 166.980469 306.078125 167.183594 305.011719 167.183594 C 304.351562 167.183594 301.203125 166.371094 298.054688 165.359375 C 294.910156 164.34375 291.40625 163.277344 290.238281 163.074219 L 288.15625 162.617188 L 289.984375 161.703125 C 292.675781 160.382812 296.175781 160.535156 299.324219 162.109375 Z M 299.324219 162.109375 " fill-opacity="1" fill-rule="nonzero"/><path fill="#560e0e" d="M 46.65625 157.335938 C 45.03125 158.960938 46.046875 160.789062 48.585938 160.789062 C 49.855469 160.789062 51.175781 159.621094 51.175781 158.453125 C 51.175781 157.792969 49.398438 156.523438 48.484375 156.523438 C 47.925781 156.523438 47.113281 156.878906 46.65625 157.335938 Z M 46.65625 157.335938 " fill-opacity="1" fill-rule="nonzero"/><path fill="#560e0e" d="M 84.273438 161.09375 C 82.449219 162.617188 78.894531 169.367188 78.894531 171.246094 C 78.894531 171.957031 78.691406 172.515625 78.539062 172.515625 C 78.335938 172.515625 76.863281 171.09375 75.289062 169.316406 C 71.429688 165.054688 68.4375 163.328125 64.933594 163.328125 C 61.886719 163.328125 59.5 164.699219 59.246094 166.523438 C 58.992188 168.351562 64.324219 173.480469 71.632812 178.507812 C 72.699219 179.21875 71.378906 179.519531 65.1875 179.976562 C 61.683594 180.230469 57.824219 180.6875 56.554688 181.042969 C 54.273438 181.652344 52.242188 183.175781 52.242188 184.292969 C 52.242188 185.410156 55.996094 188.40625 59.601562 190.132812 C 61.53125 191.097656 63.257812 191.960938 63.359375 192.011719 C 63.460938 192.113281 62.851562 193.027344 61.9375 194.039062 C 58.6875 197.746094 58.535156 203.382812 61.53125 208.507812 C 62.699219 210.539062 65.542969 213.585938 65.542969 212.875 C 65.542969 212.671875 64.78125 210.996094 63.816406 209.21875 C 61.480469 204.703125 61.378906 200.335938 63.5625 195.816406 C 64.425781 194.140625 65.289062 192.773438 65.542969 192.773438 C 66.457031 192.773438 66.609375 195.816406 65.796875 198.609375 C 65.339844 200.234375 64.882812 202.417969 64.730469 203.433594 C 64.527344 204.957031 64.78125 204.601562 66.40625 201.402344 C 67.472656 199.269531 68.4375 196.476562 68.589844 195.207031 L 68.84375 192.925781 L 75.847656 192.621094 C 83.160156 192.367188 88.132812 191.453125 87.574219 190.539062 C 87.371094 190.183594 84.324219 190.082031 78.945312 190.335938 C 67.320312 190.84375 60.71875 189.625 57.164062 186.273438 C 54.375 183.632812 55.640625 183.023438 66.507812 181.804688 L 74.527344 180.941406 L 77.21875 182.414062 C 78.742188 183.226562 83.160156 186.425781 87.066406 189.574219 C 90.976562 192.671875 95.292969 196.070312 96.664062 197.035156 C 98.792969 198.558594 99.046875 198.914062 98.234375 199.269531 C 96.410156 199.980469 88.996094 199.726562 85.847656 198.8125 C 83.71875 198.253906 82.042969 198.101562 80.671875 198.355469 L 78.589844 198.761719 L 81.382812 199.421875 C 84.273438 200.082031 86.863281 201.503906 86.863281 202.417969 C 86.863281 203.128906 83.363281 204.550781 81.484375 204.601562 C 80.621094 204.652344 79.097656 204.042969 77.980469 203.179688 C 76.101562 201.808594 76.101562 201.910156 78.4375 204.195312 C 80.570312 206.277344 81.230469 206.632812 83.109375 206.632812 C 85.59375 206.632812 87.675781 205.71875 89.25 203.941406 C 90.925781 202.113281 93.414062 201.300781 97.527344 201.300781 C 102.347656 201.300781 104.125 202.164062 109.761719 207.496094 C 112.855469 210.4375 114.277344 211.402344 114.683594 210.996094 C 115.851562 209.828125 114.53125 207.847656 110.015625 204.246094 C 104.074219 199.421875 102.957031 198.304688 101.6875 195.714844 C 100.722656 193.886719 100.671875 193.078125 100.976562 188.964844 C 101.382812 183.886719 100.824219 182.820312 99.503906 185.96875 C 97.679688 190.285156 97.980469 193.886719 100.316406 196.375 C 102.90625 199.117188 98.132812 196.476562 94.175781 192.976562 C 90.621094 189.828125 90.417969 189.21875 91.433594 184.445312 C 93.210938 175.867188 92.296875 166.421875 89.199219 161.703125 C 87.675781 159.367188 86.507812 159.214844 84.273438 161.09375 Z M 88.285156 164.902344 C 90.214844 169.925781 89.199219 186.628906 87.066406 185.410156 C 86.660156 185.15625 85.136719 183.835938 83.71875 182.464844 C 80.875 179.722656 79.605469 176.375 80.265625 173.378906 C 80.925781 170.230469 85.59375 162.363281 86.8125 162.363281 C 87.066406 162.363281 87.726562 163.53125 88.285156 164.902344 Z M 68.894531 166.066406 C 73.003906 168.046875 77.117188 172.769531 78.996094 177.695312 L 79.859375 179.925781 L 77.878906 179.117188 C 72.292969 176.832031 64.730469 170.28125 63.105469 166.421875 L 62.242188 164.394531 L 64.425781 164.648438 C 65.59375 164.800781 67.625 165.457031 68.894531 166.066406 Z M 68.894531 166.066406 " fill-opacity="1" fill-rule="nonzero"/><path fill="#560e0e" d="M 104.988281 162.871094 C 104.988281 163.429688 106.054688 165.15625 107.375 166.777344 C 108.695312 168.402344 109.8125 169.925781 109.8125 170.179688 C 109.8125 170.484375 108.390625 171.347656 106.714844 172.109375 C 103.667969 173.480469 101.28125 175.308594 101.28125 176.222656 C 101.28125 176.476562 102.398438 177.085938 103.769531 177.59375 C 105.191406 178.101562 107.832031 179.21875 109.660156 180.027344 L 113.007812 181.550781 L 112.652344 183.632812 C 112.398438 185.359375 112.550781 185.917969 113.515625 186.882812 C 114.53125 187.898438 115.039062 188.050781 117.121094 187.695312 C 120.320312 187.238281 124.992188 185.460938 127.375 183.886719 C 129 182.769531 129.304688 182.71875 129.863281 183.429688 C 130.523438 184.394531 131.4375 188.761719 131.945312 193.683594 L 132.300781 197.035156 L 128.390625 197.035156 C 124.128906 197.035156 122.199219 197.695312 123.671875 198.609375 C 124.078125 198.914062 125.601562 199.167969 126.96875 199.167969 C 130.015625 199.167969 130.269531 199.980469 127.476562 200.792969 C 126.058594 201.25 124.890625 201.25 123.46875 200.84375 C 122.402344 200.589844 121.539062 200.539062 121.539062 200.792969 C 121.539062 201.503906 124.28125 203.433594 125.347656 203.433594 C 126.816406 203.433594 129.253906 202.0625 130.472656 200.488281 C 131.84375 198.8125 132.402344 198.8125 133.214844 200.640625 C 133.570312 201.453125 135.144531 204.398438 136.71875 207.140625 C 138.292969 209.929688 139.867188 213.382812 140.222656 214.753906 C 140.878906 217.546875 142.097656 218.105469 142.605469 215.921875 C 143.214844 213.585938 142.351562 211.300781 139.105469 206.378906 C 135.296875 200.539062 134.636719 198.863281 133.570312 191.300781 C 133.0625 188.050781 132.351562 184.242188 131.894531 182.820312 C 130.726562 179.015625 130.878906 177.746094 133.265625 170.789062 C 134.433594 167.335938 135.296875 164.242188 135.09375 163.988281 C 134.28125 162.617188 127.578125 166.421875 125.09375 169.773438 L 123.621094 171.703125 L 119.710938 167.894531 C 115.34375 163.683594 111.589844 161.855469 107.375 161.855469 C 105.394531 161.855469 104.988281 162.007812 104.988281 162.871094 Z M 111.996094 164.445312 C 113.363281 165.308594 115.140625 166.929688 115.953125 168.046875 C 116.765625 169.214844 118.085938 170.941406 118.847656 172.007812 L 120.320312 173.886719 L 116.96875 176.933594 L 113.617188 179.976562 L 109.710938 178.152344 C 103.820312 175.359375 103.820312 175.410156 106.664062 174.140625 C 108.035156 173.53125 110.625 172.871094 112.398438 172.71875 C 114.175781 172.515625 115.648438 172.160156 115.648438 171.957031 C 115.648438 171.753906 115.039062 171.195312 114.328125 170.6875 C 112.601562 169.570312 109.710938 166.675781 108.238281 164.597656 L 107.070312 162.921875 L 108.289062 162.921875 C 109 162.921875 110.675781 163.632812 111.996094 164.445312 Z M 130.320312 171.601562 C 129.558594 173.835938 129 176.171875 129 176.882812 C 129 178 128.847656 177.949219 127.019531 176.121094 C 125.144531 174.242188 125.09375 174.089844 125.804688 172.667969 C 126.867188 170.636719 131.183594 166.269531 131.488281 166.980469 C 131.589844 167.285156 131.082031 169.367188 130.320312 171.601562 Z M 125.195312 178.050781 C 126.765625 179.621094 127.882812 181.144531 127.730469 181.449219 C 127.121094 182.464844 120.21875 185.460938 117.984375 185.714844 C 115.75 185.96875 115.648438 185.917969 115.648438 184.546875 C 115.648438 183.785156 116.003906 182.261719 116.460938 181.144531 C 117.324219 179.066406 120.777344 175.15625 121.792969 175.15625 C 122.097656 175.15625 123.621094 176.476562 125.195312 178.050781 Z M 125.195312 178.050781 " fill-opacity="1" fill-rule="nonzero"/><path fill="#560e0e" d="M 250.742188 163.683594 C 250.082031 165.308594 250.84375 166.371094 252.875 167.082031 C 254.648438 167.640625 255.105469 167.640625 255.714844 166.980469 C 256.171875 166.574219 256.324219 165.8125 256.171875 165.207031 C 255.5625 163.277344 251.300781 162.109375 250.742188 163.683594 Z M 250.742188 163.683594 " fill-opacity="1" fill-rule="nonzero"/><path fill="#560e0e" d="M 165.503906 168.351562 C 163.472656 171.296875 165.453125 175.003906 169.308594 175.5625 C 171.085938 175.765625 171.695312 175.613281 172.609375 174.699219 C 173.929688 173.378906 174.082031 171.042969 172.964844 169.570312 C 172.203125 168.554688 172.203125 168.605469 172.152344 170.230469 C 172.152344 172.566406 171.644531 173.582031 170.578125 173.582031 C 169.003906 173.582031 167.382812 171.296875 167.382812 169.164062 C 167.382812 166.929688 166.722656 166.625 165.503906 168.351562 Z M 165.503906 168.351562 " fill-opacity="1" fill-rule="nonzero"/><path fill="#560e0e" d="M 232.414062 175.511719 C 230.433594 177.1875 230.433594 177.59375 232.210938 180.789062 C 233.632812 183.328125 233.683594 183.328125 234.394531 182.210938 C 234.851562 181.550781 235.714844 181.042969 236.324219 181.042969 C 237.238281 181.042969 237.441406 180.6875 237.492188 179.320312 C 237.492188 178.355469 237.695312 177.136719 237.949219 176.628906 C 238.304688 175.917969 238 175.5625 236.476562 174.902344 C 234.089844 173.886719 234.34375 173.886719 232.414062 175.511719 Z M 235.511719 177.136719 C 235.257812 178.457031 233.988281 178.660156 233.988281 177.339844 C 233.988281 176.679688 234.34375 176.222656 234.851562 176.222656 C 235.308594 176.222656 235.613281 176.628906 235.511719 177.136719 Z M 235.511719 177.136719 " fill-opacity="1" fill-rule="nonzero"/><path fill="#560e0e" d="M 17.363281 177.59375 C 16.703125 178.253906 16.652344 178.710938 17.058594 179.472656 C 17.71875 180.738281 20.359375 180.839844 21.324219 179.671875 C 22.949219 177.746094 19.191406 175.765625 17.363281 177.59375 Z M 17.363281 177.59375 " fill-opacity="1" fill-rule="nonzero"/><path fill="#560e0e" d="M 214.542969 182.617188 C 212.105469 183.226562 209.925781 184.496094 208.046875 186.476562 C 205.761719 188.914062 204.847656 190.894531 203.679688 195.96875 C 202.816406 199.625 202.765625 200.335938 203.425781 200.589844 C 204.796875 201.148438 214.035156 198.660156 216.523438 197.085938 C 220.382812 194.648438 222.464844 190.894531 222.160156 186.832031 C 221.957031 184.039062 221.042969 183.988281 220.585938 186.730469 C 219.976562 190.742188 218.148438 193.230469 214.542969 195.054688 C 212.5625 196.070312 205.203125 198.304688 204.949219 198 C 204.085938 197.136719 205.863281 195.054688 209.773438 192.46875 C 213.679688 189.878906 215.253906 188.253906 214.644531 187.644531 C 214.542969 187.542969 212.664062 188.609375 210.484375 190.082031 C 208.300781 191.554688 206.371094 192.773438 206.117188 192.773438 C 205.304688 192.773438 207.84375 188.660156 209.621094 187.085938 C 210.636719 186.171875 212.816406 184.902344 214.441406 184.242188 C 218.503906 182.515625 218.554688 181.601562 214.542969 182.617188 Z M 214.542969 182.617188 " fill-opacity="1" fill-rule="nonzero"/><path fill="#560e0e" d="M 163.472656 183.378906 C 163.269531 183.835938 163.371094 185.613281 163.625 187.289062 C 163.929688 188.964844 164.132812 191.25 164.132812 192.367188 C 164.183594 194.902344 164.84375 194.902344 166.011719 192.417969 C 167.332031 189.675781 166.875 185.664062 165.097656 183.886719 C 163.980469 182.769531 163.726562 182.667969 163.472656 183.378906 Z M 163.472656 183.378906 " fill-opacity="1" fill-rule="nonzero"/><path fill="#560e0e" d="M 240.128906 184.089844 C 239.976562 184.902344 238.355469 188.457031 236.578125 191.960938 C 232.921875 199.269531 232.109375 203.230469 233.632812 206.632812 L 234.445312 208.507812 L 234.496094 205.261719 C 234.546875 200.996094 235.714844 196.730469 238.355469 191.199219 L 240.535156 186.628906 L 242.160156 190.082031 C 244.445312 194.953125 244.496094 199.726562 242.363281 202.519531 C 241.550781 203.585938 239.367188 205.566406 237.492188 206.886719 C 233.734375 209.574219 229.722656 214.347656 229.722656 216.125 C 229.722656 216.785156 229.976562 217.292969 230.28125 217.292969 C 230.636719 217.292969 233.074219 215.160156 235.816406 212.519531 L 240.738281 207.796875 L 249.066406 207.796875 C 258.152344 207.796875 262.0625 207.089844 264.347656 204.957031 L 265.667969 203.738281 L 263.789062 203.28125 C 262.824219 203.027344 260.792969 202.316406 259.320312 201.65625 C 257.441406 200.84375 255.5625 200.539062 252.875 200.488281 C 249.523438 200.488281 248.761719 200.691406 246.324219 202.214844 L 243.582031 203.941406 L 244.34375 202.46875 C 246.679688 197.949219 246.425781 193.734375 243.480469 187.339844 C 241.398438 182.820312 240.636719 182.058594 240.128906 184.089844 Z M 258.710938 202.46875 C 261.25 203.027344 261.300781 203.078125 260.03125 203.738281 C 258.355469 204.601562 253.632812 205.414062 247.59375 205.820312 L 242.769531 206.175781 L 245.410156 204.296875 C 246.832031 203.230469 248.863281 202.265625 249.929688 202.0625 C 250.996094 201.910156 252.0625 201.65625 252.367188 201.605469 C 253.027344 201.402344 255.15625 201.707031 258.710938 202.46875 Z M 258.710938 202.46875 " fill-opacity="1" fill-rule="nonzero"/><path fill="#560e0e" d="M 102.855469 187.035156 C 102.855469 187.136719 103.464844 189.320312 104.175781 191.960938 C 104.886719 194.597656 105.496094 197.390625 105.496094 198.203125 C 105.546875 199.878906 106.308594 200.589844 106.816406 199.371094 C 107.578125 197.289062 107.070312 193.484375 105.546875 190.234375 C 104.683594 188.40625 103.71875 186.882812 103.414062 186.882812 C 103.109375 186.882812 102.855469 186.984375 102.855469 187.035156 Z M 102.855469 187.035156 " fill-opacity="1" fill-rule="nonzero"/><path fill="#560e0e" d="M 286.429688 191.910156 C 284.652344 192.316406 281.507812 193.535156 279.425781 194.597656 C 276.378906 196.070312 274.957031 196.527344 272.519531 196.527344 C 268.660156 196.578125 266.125 197.492188 269.675781 197.542969 C 271.300781 197.542969 272.722656 198.050781 274.449219 199.117188 C 282.265625 204.144531 295.820312 209.21875 306.230469 210.996094 C 315.925781 212.621094 321.511719 211.757812 324.25 208.101562 C 325.570312 206.277344 325.316406 205.972656 319.632812 202.316406 C 317.246094 200.792969 313.132812 198.152344 310.492188 196.425781 C 307.855469 194.75 304.605469 192.925781 303.285156 192.46875 C 300.035156 191.25 290.695312 190.945312 286.429688 191.910156 Z M 301.355469 194.648438 C 305.570312 195.765625 308.769531 197.492188 313.792969 201.453125 C 316.179688 203.332031 319.023438 205.414062 320.089844 206.074219 C 323.1875 208.050781 321.867188 208.507812 313.234375 208.507812 C 304.910156 208.507812 300.542969 207.75 292.066406 205.007812 C 286.074219 203.027344 276.988281 198.761719 277.394531 198.152344 C 277.800781 197.542969 279.324219 197.847656 289.984375 200.84375 C 299.527344 203.535156 305.925781 204.652344 305.214844 203.535156 C 304.402344 202.214844 288.359375 197.542969 281.757812 196.730469 L 278.613281 196.375 L 280.085938 195.5625 C 284.296875 193.382812 294.757812 192.925781 301.355469 194.648438 Z M 301.355469 194.648438 " fill-opacity="1" fill-rule="nonzero"/><path fill="#560e0e" d="M 144.027344 196.324219 C 143.671875 196.476562 143.367188 197.1875 143.367188 197.847656 C 143.367188 200.285156 147.734375 201.148438 148.039062 198.8125 C 148.34375 196.832031 146.160156 195.460938 144.027344 196.324219 Z M 144.027344 196.324219 " fill-opacity="1" fill-rule="nonzero"/><path fill="#560e0e" d="M 35.386719 201.910156 C 36.300781 205.058594 36.300781 206.835938 35.4375 210.488281 C 34.878906 212.621094 34.167969 214.957031 33.8125 215.667969 C 33.203125 216.886719 33.152344 216.835938 31.171875 213.535156 C 27.414062 207.039062 25.335938 205.160156 20.96875 204.347656 C 18.378906 203.839844 17.820312 204.90625 17.820312 210.386719 L 17.820312 215.007812 L 14.519531 213.738281 C 11.832031 212.773438 11.171875 212.671875 11.171875 213.28125 C 11.171875 214.5 14.316406 216.53125 18.53125 218.054688 C 20.664062 218.816406 23 219.730469 23.761719 220.136719 C 25.03125 220.796875 24.929688 220.847656 21.171875 222.0625 C 14.519531 224.195312 11.730469 225.617188 11.730469 226.886719 C 11.730469 228.765625 14.824219 229.628906 23.710938 230.289062 L 31.679688 230.898438 L 32.59375 233.539062 C 34.167969 238.308594 36.300781 245.671875 36.097656 245.824219 C 35.539062 246.433594 29.800781 243.640625 27.972656 241.8125 C 25.589844 239.476562 24.980469 239.273438 23.964844 240.492188 C 23.355469 241.203125 23.609375 241.710938 25.742188 243.84375 C 27.113281 245.265625 28.226562 246.535156 28.226562 246.738281 C 28.226562 246.992188 27.363281 247.144531 26.351562 247.144531 C 24.726562 247.144531 24.015625 246.6875 21.78125 244.402344 C 20.359375 242.878906 19.039062 241.761719 18.835938 241.964844 C 17.617188 243.183594 22.644531 247.90625 25.894531 248.515625 C 26.859375 248.71875 29.191406 248.566406 31.070312 248.210938 C 35.945312 247.246094 37.113281 247.652344 38.636719 251.050781 C 39.753906 253.539062 41.730469 262.070312 41.226562 262.070312 C 41.074219 262.070312 40.3125 261.613281 39.550781 261.003906 C 36.300781 258.667969 30.96875 258.667969 28.480469 261.003906 C 26.707031 262.679688 24.066406 268.566406 25.488281 267.703125 C 25.792969 267.5 26.351562 266.382812 26.65625 265.214844 C 27.3125 262.628906 28.53125 262.070312 33.253906 262.070312 C 37.011719 262.070312 39.957031 262.882812 39.957031 263.949219 C 39.957031 264.304688 38.839844 265.773438 37.519531 267.144531 C 35.183594 269.53125 34.980469 269.632812 32.441406 269.429688 C 31.019531 269.328125 29.800781 269.378906 29.800781 269.582031 C 29.800781 269.734375 30.308594 270.34375 30.867188 270.953125 C 31.425781 271.5625 31.730469 272.222656 31.578125 272.425781 C 30.917969 273.085938 26.300781 272.679688 25.132812 271.867188 C 23.761719 270.902344 23.253906 271.105469 23.710938 272.324219 C 24.269531 273.746094 27.617188 275.015625 29.953125 274.710938 C 32.492188 274.355469 35.082031 272.425781 38.332031 268.3125 C 41.074219 264.910156 41.527344 265.113281 41.527344 269.683594 C 41.527344 272.679688 42.542969 275.625 43.660156 276.03125 C 44.066406 276.132812 44.066406 277.199219 43.660156 279.378906 C 42.390625 286.589844 41.730469 287.148438 38.027344 284.660156 C 33.457031 281.5625 30.96875 281.664062 29.597656 285.015625 C 28.378906 288.0625 28.53125 289.027344 30.410156 290.5 C 32.035156 291.769531 32.085938 291.820312 31.222656 293.035156 C 29.800781 295.066406 30.105469 297.605469 31.933594 299.484375 C 33.152344 300.652344 33.863281 300.957031 34.777344 300.703125 C 37.46875 299.890625 40.820312 295.472656 42.136719 291.007812 C 42.492188 289.738281 42.898438 288.824219 43 288.925781 C 43.101562 289.027344 42.1875 293.289062 41.023438 298.367188 C 33.761719 329.285156 33.152344 332.992188 34.929688 334.820312 C 36.046875 335.933594 37.011719 335.882812 46.503906 334.058594 C 78.386719 327.964844 108.390625 326.746094 144.179688 330.046875 C 154.6875 331.0625 158.800781 331.671875 161.441406 332.738281 C 163.21875 333.449219 163.675781 334.007812 164.488281 336.339844 L 165.503906 339.082031 L 171.644531 339.082031 C 174.996094 339.082031 185.859375 338.878906 195.761719 338.625 C 214.542969 338.117188 215.355469 338.015625 215.355469 335.78125 C 215.355469 335.324219 214.847656 334.160156 214.238281 333.246094 L 213.171875 331.46875 L 215.457031 331.164062 C 219.011719 330.65625 228.199219 329.894531 244.648438 328.726562 C 260.4375 327.558594 285.414062 325.222656 314.757812 322.074219 C 324.148438 321.058594 334.40625 319.945312 337.65625 319.640625 C 346.488281 318.726562 346.945312 318.167969 342.832031 313.34375 C 341.359375 311.667969 339.226562 308.875 338.0625 307.097656 C 334.304688 301.464844 320.34375 278.417969 309.683594 260.191406 C 293.132812 231.914062 284.957031 218.96875 280.949219 214.703125 C 279.730469 213.382812 278.96875 213.027344 277.394531 213.027344 C 274.601562 213.027344 245.96875 218.867188 232.972656 222.0625 C 209.824219 227.851562 192.105469 234.859375 179.617188 243.183594 C 177.230469 244.757812 175.199219 246.078125 175.097656 246.078125 C 174.945312 246.078125 173.523438 244.300781 171.898438 242.167969 C 158.445312 224.195312 134.789062 214.90625 99.65625 213.738281 C 89.859375 213.382812 78.691406 214.144531 76.253906 215.3125 C 74.984375 215.921875 74.832031 216.328125 74.730469 219.527344 L 74.578125 223.027344 L 71.125 223.230469 C 68.894531 223.382812 67.371094 223.789062 66.8125 224.296875 C 66.253906 224.90625 65.695312 227.191406 65.238281 231.203125 C 64.832031 234.503906 64.375 237.648438 64.171875 238.105469 C 63.96875 238.765625 62.851562 239.171875 59.90625 239.628906 C 57.671875 239.933594 55.238281 240.542969 54.375 241 C 51.785156 242.320312 48.941406 250.140625 46.859375 261.664062 C 46.148438 265.417969 45.4375 268.464844 45.234375 268.464844 C 45.03125 268.464844 44.726562 267.347656 44.523438 265.925781 C 43.507812 258.820312 41.832031 252.472656 39.703125 247.5 C 36.910156 240.949219 35.386719 236.53125 34.878906 233.4375 C 34.574219 231.304688 34.625 231.152344 35.792969 231.152344 C 36.554688 231.152344 37.824219 231.914062 38.941406 233.082031 C 42.441406 236.734375 44.675781 236.632812 41.832031 232.929688 C 40.820312 231.558594 39.957031 230.289062 39.957031 230.085938 C 39.957031 229.121094 44.980469 225.160156 49.703125 222.417969 C 52.546875 220.746094 54.984375 219.171875 55.136719 218.867188 C 55.691406 218.054688 52.292969 216.378906 48.789062 215.71875 C 45.691406 215.109375 40.820312 215.515625 38.078125 216.582031 C 37.417969 216.835938 37.417969 216.53125 38.128906 214.550781 C 39.449219 210.945312 39.398438 205.160156 38.078125 202.925781 C 36.757812 200.640625 34.777344 199.929688 35.386719 201.910156 Z M 26.960938 210.996094 C 28.9375 213.6875 31.425781 219.273438 31.425781 221 C 31.425781 221.960938 31.222656 221.914062 27.71875 220.390625 C 25.742188 219.527344 23.253906 217.953125 22.289062 216.9375 C 20.5625 215.160156 20.511719 214.957031 20.308594 209.980469 L 20.105469 204.90625 L 22.644531 206.683594 C 24.015625 207.648438 25.945312 209.625 26.960938 210.996094 Z M 50.464844 218.003906 C 50.667969 218.257812 50.3125 218.867188 49.550781 219.375 C 48.839844 219.832031 46.351562 221.710938 43.964844 223.535156 C 39.652344 226.886719 35.386719 229.425781 34.929688 228.96875 C 34.777344 228.816406 34.523438 226.785156 34.320312 224.449219 C 33.964844 219.679688 34.066406 219.476562 38.636719 218.003906 C 40.972656 217.242188 49.703125 217.242188 50.464844 218.003906 Z M 114.074219 218.105469 C 127.832031 219.730469 140.726562 223.179688 148.039062 227.242188 C 155.703125 231.457031 166.875 241.609375 171.746094 248.769531 C 173.625 251.507812 173.828125 252.269531 175.351562 261.257812 C 176.875 270.191406 178.144531 276.335938 183.066406 297.757812 C 184.082031 302.328125 185.046875 307.605469 185.199219 309.484375 L 185.503906 312.988281 L 184.742188 311.007812 C 181.191406 301.972656 173.777344 291.058594 167.6875 286.03125 C 163.066406 282.171875 154.484375 277.707031 147.582031 275.472656 C 135.398438 271.613281 113.769531 268.515625 92.550781 267.601562 C 86.863281 267.398438 83.464844 266.992188 83.160156 266.636719 C 82.855469 266.28125 82.296875 262.324219 81.839844 257.753906 C 81.382812 253.234375 80.316406 242.472656 79.402344 233.84375 C 78.539062 225.210938 77.828125 218.105469 77.828125 218.003906 C 77.828125 217.140625 106.15625 217.191406 114.074219 218.105469 Z M 280.492188 223.128906 C 282.0625 226.226562 287.699219 235.722656 292.980469 244.199219 C 304.808594 263.238281 304.148438 262.070312 302.726562 262.070312 C 300.695312 262.070312 277.851562 266.839844 268.40625 269.226562 C 226.625 279.835938 198.449219 295.625 191.953125 311.972656 C 190.785156 314.96875 190.785156 315.019531 189.769531 307.351562 C 188.449219 297.960938 182.511719 267.09375 180.886719 261.511719 C 180.429688 259.9375 179.363281 257.195312 178.5 255.46875 C 177.636719 253.742188 176.976562 252.066406 176.976562 251.710938 C 176.976562 251 187.890625 243.082031 193.832031 239.527344 C 205.761719 232.269531 231.550781 224.753906 259.828125 220.289062 C 271.757812 218.410156 277.445312 217.496094 277.496094 217.546875 C 277.546875 217.546875 278.867188 220.085938 280.492188 223.128906 Z M 29.292969 222.976562 C 31.070312 224.195312 31.425781 224.753906 31.425781 226.429688 C 31.425781 228.207031 30.15625 228.460938 22.390625 228.460938 C 18.429688 228.460938 16.398438 228.257812 15.6875 227.75 C 14.773438 227.039062 14.824219 226.988281 16.550781 226.074219 C 19.445312 224.550781 25.742188 222.164062 26.910156 222.113281 C 27.515625 222.113281 28.582031 222.46875 29.292969 222.976562 Z M 76.964844 242.21875 C 77.777344 249.785156 78.742188 258.921875 79.148438 262.578125 C 79.808594 268.71875 79.960938 269.328125 81.230469 270.34375 L 82.652344 271.460938 L 80.417969 275.269531 C 78.183594 279.125 78.082031 280.191406 79.960938 280.191406 C 80.976562 280.191406 80.976562 280.242188 79.960938 282.730469 C 78.4375 286.691406 78.386719 288.316406 79.808594 289.027344 L 81.027344 289.636719 L 79.859375 291.058594 C 78.386719 292.933594 76.558594 297.808594 77.117188 298.367188 C 77.371094 298.621094 80.519531 298.214844 84.222656 297.453125 C 98.183594 294.710938 112.5 292.984375 121.792969 292.984375 C 131.132812 293.035156 146.921875 294.355469 150.324219 295.421875 C 156.769531 297.402344 168.398438 302.785156 167.738281 303.445312 C 167.585938 303.597656 165.402344 302.988281 162.914062 302.125 C 150.527344 297.808594 139.765625 295.777344 126.664062 295.320312 C 108.035156 294.609375 90.316406 296.84375 64.476562 303.089844 C 58.992188 304.410156 58.941406 304.410156 59.398438 303.242188 C 59.550781 302.785156 60.566406 295.625 61.582031 287.402344 C 63.308594 273.390625 66.660156 248.058594 68.4375 235.417969 C 69.300781 229.121094 69.753906 228.460938 73.308594 228.460938 L 75.492188 228.460938 Z M 63.410156 244.148438 C 63.410156 244.25 62.445312 250.289062 61.328125 257.601562 C 59.042969 271.917969 56.453125 289.789062 55.1875 300.449219 C 54.070312 309.585938 53.308594 311.820312 48.992188 318.269531 C 43.8125 326.035156 43.609375 326.085938 45.03125 318.777344 C 45.792969 314.5625 48.484375 294.101562 51.9375 265.773438 C 54.578125 244.097656 54.121094 245.976562 57.265625 244.910156 C 59.652344 244.097656 63.410156 243.640625 63.410156 244.148438 Z M 300.796875 267.90625 C 295.820312 270.902344 290.441406 272.375 269.421875 276.4375 C 264.753906 277.300781 254.902344 279.835938 247.59375 282.070312 C 240.28125 284.253906 234.089844 285.980469 233.785156 285.929688 C 232.921875 285.625 242.617188 281.410156 249.878906 278.921875 C 258.457031 275.980469 272.722656 272.324219 284.652344 270.089844 C 289.476562 269.125 294.960938 268.058594 296.886719 267.703125 C 302.066406 266.636719 302.828125 266.6875 300.796875 267.90625 Z M 311.964844 274.203125 C 321.105469 290.855469 326.738281 299.332031 334.609375 308.164062 C 340.039062 314.257812 340.851562 315.324219 340.496094 315.628906 C 339.988281 316.1875 334.304688 316.949219 315.011719 319.082031 C 273.078125 323.75 262.976562 324.664062 239.066406 326.035156 C 228.503906 326.644531 218.300781 327.355469 216.421875 327.660156 C 209.113281 328.726562 207.640625 328.066406 213.476562 326.339844 C 219.367188 324.613281 224.648438 324.003906 261.453125 320.707031 C 301.355469 317.152344 328.414062 314.511719 329.988281 314.003906 C 330.597656 313.851562 330.75 313.34375 330.597656 312.429688 C 330.34375 311.160156 330.140625 311.109375 326.839844 311.109375 C 323.390625 311.109375 323.339844 311.058594 321.15625 308.722656 C 319.988281 307.402344 317.601562 304.15625 315.976562 301.464844 C 313.132812 296.894531 312.269531 294.863281 309.984375 286.84375 C 309.429688 285.117188 308.464844 282.882812 307.753906 281.96875 C 306.230469 279.886719 306.230469 279.988281 307.652344 278.0625 L 308.820312 276.4375 L 307.753906 275.015625 C 307.144531 274.203125 305.671875 273.085938 304.402344 272.425781 L 302.167969 271.308594 L 304.859375 269.632812 C 306.332031 268.71875 307.550781 267.703125 307.550781 267.398438 C 307.550781 267.09375 307.652344 266.839844 307.753906 266.839844 C 307.855469 266.839844 309.785156 270.140625 311.964844 274.203125 Z M 124.738281 272.628906 C 131.488281 273.898438 141.691406 276.488281 147.125 278.265625 C 151.644531 279.734375 158.546875 282.78125 158.242188 283.085938 C 158.089844 283.238281 156.414062 282.78125 154.535156 282.070312 C 149.613281 280.292969 136.667969 277.199219 130.066406 276.183594 C 118.949219 274.507812 90.417969 274.660156 84.222656 276.4375 C 82.246094 277.046875 82.042969 276.082031 83.816406 274.507812 C 87.015625 271.5625 89.910156 271.15625 106.613281 271.410156 C 116.308594 271.511719 120.371094 271.816406 124.738281 272.628906 Z M 299.527344 275.066406 C 301.355469 275.726562 301.203125 275.777344 295.011719 276.691406 C 276.785156 279.378906 256.679688 283.035156 248.40625 285.167969 C 240.027344 287.351562 227.945312 291.160156 223.023438 293.238281 C 219.46875 294.710938 221.246094 293.441406 225.304688 291.566406 C 237.59375 285.929688 259.929688 279.785156 282.519531 275.929688 C 292.066406 274.253906 296.683594 274.050781 299.527344 275.066406 Z M 302.421875 277.554688 C 301.863281 278.113281 295.921875 279.582031 288.917969 280.902344 L 284.90625 281.664062 L 292.625 281.765625 C 296.9375 281.816406 301.304688 282.171875 302.472656 282.527344 C 304.402344 283.136719 303.285156 283.238281 292.625 283.59375 C 269.421875 284.355469 250.640625 286.691406 238.050781 290.398438 C 236.070312 290.957031 234.292969 291.363281 234.140625 291.210938 C 233.785156 290.855469 242.71875 288.113281 250.792969 286.082031 C 254.292969 285.21875 262.46875 283.542969 268.914062 282.375 C 297.699219 277.148438 303.691406 276.285156 302.421875 277.554688 Z M 130.675781 279.328125 C 144.179688 281.511719 160.628906 287.25 163.929688 290.90625 C 165.503906 292.628906 164.4375 292.628906 160.476562 290.855469 C 155.957031 288.875 150.375 287.402344 144.382812 286.589844 C 136.71875 285.523438 137.886719 285.980469 153.523438 290.347656 C 163.675781 293.136719 164.792969 293.695312 169.359375 298.113281 C 173.21875 301.820312 173.269531 301.921875 170.375 299.6875 C 162.609375 293.542969 148.699219 289.078125 135.550781 288.519531 C 129.964844 288.265625 129.914062 288.265625 134.027344 288.722656 C 140.371094 289.433594 144.738281 290.296875 149.460938 291.769531 C 154.082031 293.238281 165.046875 298.164062 164.589844 298.621094 C 164.4375 298.773438 161.796875 297.910156 158.800781 296.691406 C 148.140625 292.480469 138.648438 291.109375 119.660156 291.160156 C 102.804688 291.160156 91.585938 292.277344 81.332031 294.863281 C 79.910156 295.21875 79.859375 295.167969 80.417969 294.152344 C 81.6875 291.769531 90.621094 289.027344 100.113281 288.214844 C 104.734375 287.757812 104.328125 287.757812 96.308594 287.859375 C 91.382812 287.960938 87.523438 287.859375 87.777344 287.605469 C 88.03125 287.351562 90.875 286.742188 94.074219 286.234375 C 98.4375 285.523438 103.363281 285.320312 113.617188 285.269531 C 121.132812 285.269531 127.019531 285.117188 126.664062 284.914062 C 125.042969 284 114.9375 283.1875 106.054688 283.1875 C 98.335938 283.1875 94.785156 283.441406 89.707031 284.355469 C 86.152344 285.015625 82.957031 285.523438 82.652344 285.523438 C 81.890625 285.523438 83.71875 281.816406 85.085938 280.648438 C 87.472656 278.515625 92.042969 278.113281 110.320312 278.316406 C 120.878906 278.417969 127.070312 278.71875 130.675781 279.328125 Z M 37.570312 286.4375 C 39.703125 287.707031 40.972656 288.824219 41.023438 289.382812 C 41.074219 292.023438 35.945312 298.824219 33.914062 298.824219 C 31.679688 298.824219 31.375 295.878906 33.355469 293.542969 L 34.726562 291.921875 L 32.847656 289.789062 C 30.917969 287.707031 30.816406 286.792969 32.085938 285.117188 C 32.898438 284.101562 33.863281 284.304688 37.570312 286.4375 Z M 307.550781 290.601562 C 307.550781 294.152344 307.042969 294.253906 292.726562 293.542969 C 281.203125 292.984375 273.6875 292.882812 274.753906 293.238281 C 275.058594 293.339844 279.882812 293.847656 285.414062 294.304688 C 303.183594 295.828125 308.3125 296.84375 310.1875 299.078125 C 311.050781 300.144531 310.898438 300.144531 304.65625 299.128906 C 285.667969 295.980469 255.917969 294.964844 242.007812 296.894531 C 233.378906 298.113281 224.496094 300.09375 217.488281 302.378906 C 214.441406 303.394531 211.851562 304.105469 211.75 304.003906 C 211.34375 303.546875 220.28125 299.890625 226.066406 298.164062 C 238.710938 294.304688 249.980469 292.277344 271.046875 290.09375 C 285.515625 288.570312 287.496094 288.417969 299.171875 288.316406 L 307.550781 288.164062 Z M 290.746094 300.195312 C 299.984375 301.261719 305.164062 302.226562 307.550781 303.34375 L 309.429688 304.207031 L 306.230469 303.902344 C 292.625 302.835938 279.628906 302.480469 263.027344 302.734375 C 243.074219 303.089844 234.445312 303.800781 222.871094 306.035156 C 218.960938 306.792969 215.558594 307.351562 215.253906 307.25 C 214.492188 306.996094 225.003906 303.292969 229.976562 302.074219 C 234.140625 301.007812 243.175781 299.636719 248.660156 299.179688 C 255.003906 298.671875 283.585938 299.332031 290.746094 300.195312 Z M 141.234375 300.703125 C 149.816406 302.023438 155.144531 303.394531 161.949219 306.085938 C 172 309.992188 178.550781 314.15625 182.410156 318.980469 C 185.453125 322.835938 184.792969 322.835938 180.835938 319.03125 C 172.253906 310.855469 162.8125 307.453125 145.246094 306.339844 C 134.027344 305.578125 131.539062 305.78125 140.421875 306.644531 C 152.964844 307.859375 166.824219 311.820312 173.167969 315.933594 C 174.945312 317.050781 177.789062 319.335938 179.566406 320.957031 L 182.8125 323.902344 L 188.296875 323.902344 C 192.410156 323.902344 194.238281 324.15625 195.863281 324.917969 L 197.992188 325.882812 L 194.542969 326.238281 C 192.613281 326.441406 189.210938 326.390625 186.976562 326.136719 C 183.472656 325.679688 182.460938 325.324219 180.226562 323.699219 C 178.042969 322.074219 176.519531 321.515625 171.542969 320.453125 C 168.195312 319.742188 162.304688 318.421875 158.445312 317.558594 C 133.722656 311.871094 109.609375 309.6875 87.421875 311.058594 C 76.863281 311.71875 66.8125 312.9375 64.882812 313.800781 C 63.816406 314.257812 63.867188 314.308594 65.289062 314.054688 C 66.152344 313.902344 76.101562 313.648438 87.421875 313.445312 C 120.472656 312.886719 136.769531 314.257812 161.746094 319.691406 C 173.472656 322.277344 176.164062 323.140625 178.296875 325.273438 C 179.464844 326.492188 180.175781 327.660156 180.175781 328.574219 L 180.175781 329.996094 L 178.398438 328.320312 C 176.113281 326.085938 171.949219 324.308594 165.199219 322.683594 C 147.175781 318.320312 127.222656 316.339844 100.722656 316.390625 C 80.46875 316.390625 76.40625 316.59375 63.511719 318.117188 C 58.433594 318.726562 54.171875 319.132812 54.019531 318.980469 C 53.460938 318.371094 55.339844 315.019531 57.164062 313.394531 C 58.535156 312.226562 60.160156 311.515625 62.953125 310.855469 C 66.507812 310.042969 75.289062 308.773438 80.722656 308.265625 C 82.246094 308.164062 81.941406 308.0625 79.65625 308.011719 C 77.929688 308.011719 72.445312 308.367188 67.523438 308.875 C 62.648438 309.382812 58.636719 309.636719 58.636719 309.484375 C 58.636719 307.453125 77.828125 302.734375 93.820312 300.753906 C 103.871094 299.484375 104.175781 299.484375 120.472656 299.636719 C 131.234375 299.789062 137.277344 300.09375 141.234375 300.703125 Z M 305.417969 305.222656 C 311.355469 305.933594 312.878906 306.441406 314.554688 308.316406 C 315.671875 309.535156 315.722656 309.636719 314.757812 309.28125 C 313.488281 308.824219 265.160156 309.839844 252.113281 310.601562 C 238.914062 311.363281 217.640625 314.105469 214.59375 315.425781 C 213.730469 315.78125 213.933594 315.832031 215.355469 315.628906 C 225.304688 314.15625 241.09375 313.140625 260.132812 312.683594 C 280.695312 312.226562 299.882812 311.363281 302.777344 310.753906 C 305.671875 310.195312 302.269531 311.667969 298.96875 312.429688 C 294.046875 313.546875 284.449219 314.257812 266.226562 314.816406 C 254.445312 315.222656 248.710938 315.628906 244.394531 316.390625 C 241.144531 317 235.714844 317.8125 232.261719 318.269531 C 224.75 319.285156 208.199219 322.582031 205.101562 323.648438 C 203.882812 324.105469 202.765625 324.308594 202.613281 324.15625 C 202.054688 323.597656 204.492188 322.277344 207.894531 321.261719 C 211.242188 320.199219 225.863281 317.558594 228.605469 317.457031 C 229.367188 317.457031 229.671875 317.304688 229.316406 317.152344 C 227.234375 316.339844 202.105469 320.25 199.464844 321.820312 C 197.839844 322.734375 194.542969 323.242188 194.542969 322.53125 C 194.542969 321.617188 196.371094 319.03125 198.09375 317.507812 C 204.949219 311.464844 222.210938 307.605469 255.054688 304.714844 C 262.265625 304.105469 299.121094 304.460938 305.417969 305.222656 Z M 43.152344 310.195312 C 43.152344 310.550781 42.695312 313.292969 42.085938 316.339844 C 40.921875 322.226562 40.769531 325.832031 41.527344 327.050781 C 42.1875 328.066406 46.554688 327.964844 58.636719 326.59375 C 77.117188 324.460938 87.472656 323.800781 105.851562 323.546875 C 129.152344 323.140625 149.765625 324.410156 161.695312 326.847656 C 164.945312 327.507812 168.296875 328.980469 167.789062 329.488281 C 167.6875 329.640625 164.234375 329.386719 160.171875 328.980469 C 137.683594 326.695312 129.8125 326.339844 105.242188 326.339844 C 76.609375 326.339844 65.339844 327.152344 45.386719 330.605469 C 41.226562 331.316406 37.519531 331.773438 37.214844 331.570312 C 35.84375 330.757812 37.773438 321.261719 41.023438 312.582031 C 42.085938 309.789062 43.152344 308.570312 43.152344 310.195312 Z M 257.847656 316.746094 C 257.542969 317.050781 241.195312 319.132812 239.621094 319.03125 C 239.015625 319.03125 240.433594 318.625 242.769531 318.21875 C 250.03125 316.949219 258.507812 316.085938 257.847656 316.746094 Z M 107.882812 318.523438 C 107.578125 318.777344 100.570312 319.234375 92.195312 319.589844 C 83.816406 319.945312 71.480469 320.65625 64.730469 321.210938 C 57.976562 321.769531 52.394531 322.125 52.292969 322.023438 C 51.277344 321.109375 62.851562 319.386719 75.695312 318.625 C 85.035156 318.066406 108.441406 317.964844 107.882812 318.523438 Z M 203.78125 327.203125 C 203.984375 328.066406 203.882812 329.285156 203.527344 329.894531 C 202.96875 330.960938 202.664062 330.960938 194.238281 330.65625 C 184.132812 330.199219 181.242188 329.589844 186.265625 328.929688 C 188.042969 328.675781 192.308594 328.472656 195.761719 328.472656 L 202.003906 328.421875 L 202.003906 326.695312 C 202.003906 324.511719 203.324219 324.867188 203.78125 327.203125 Z M 169.613281 332.128906 L 170.476562 333.90625 L 178.398438 334.261719 C 182.714844 334.464844 187.484375 334.769531 188.957031 334.972656 C 191.445312 335.324219 191.292969 335.375 186.570312 335.679688 C 179.363281 336.1875 167.992188 336.238281 167.738281 335.78125 C 167.382812 335.121094 167.941406 330.300781 168.398438 330.300781 C 168.597656 330.300781 169.15625 331.113281 169.613281 332.128906 Z M 209.671875 332.484375 C 210.433594 333.398438 211.089844 334.261719 211.089844 334.464844 C 211.089844 334.769531 209.367188 334.820312 205.355469 334.617188 C 205 334.566406 205.304688 333.957031 206.015625 333.246094 C 206.726562 332.535156 207.335938 331.722656 207.335938 331.367188 C 207.335938 330.351562 208.300781 330.808594 209.671875 332.484375 Z M 209.671875 332.484375 " fill-opacity="1" fill-rule="nonzero"/><path fill="#560e0e" d="M 98.335938 220.492188 C 98.132812 220.796875 98.386719 221 98.84375 221 C 99.300781 221 99.65625 220.796875 99.65625 220.492188 C 99.65625 220.1875 99.453125 219.933594 99.148438 219.933594 C 98.894531 219.933594 98.488281 220.1875 98.335938 220.492188 Z M 98.335938 220.492188 " fill-opacity="1" fill-rule="nonzero"/><path fill="#560e0e" d="M 93.058594 220.847656 C 92.398438 221.507812 92.753906 222.0625 93.820312 222.0625 C 94.378906 222.0625 94.886719 221.710938 94.886719 221.304688 C 94.886719 220.492188 93.71875 220.1875 93.058594 220.847656 Z M 93.058594 220.847656 " fill-opacity="1" fill-rule="nonzero"/><path fill="#560e0e" d="M 83.667969 221.558594 C 83.667969 221.863281 84.273438 222.0625 84.984375 222.0625 C 85.746094 222.0625 86.355469 221.863281 86.355469 221.558594 C 86.355469 221.253906 85.746094 221 84.984375 221 C 84.273438 221 83.667969 221.253906 83.667969 221.558594 Z M 83.667969 221.558594 " fill-opacity="1" fill-rule="nonzero"/><path fill="#560e0e" d="M 88.183594 221.609375 C 87.980469 221.914062 87.980469 222.316406 88.132812 222.46875 C 88.539062 222.875 90.0625 222.214844 90.0625 221.558594 C 90.0625 220.847656 88.640625 220.847656 88.183594 221.609375 Z M 88.183594 221.609375 " fill-opacity="1" fill-rule="nonzero"/><path fill="#560e0e" d="M 98.589844 223.6875 C 98.589844 223.992188 98.792969 224.195312 99.097656 224.195312 C 99.351562 224.195312 99.757812 223.992188 99.910156 223.6875 C 100.113281 223.382812 99.859375 223.128906 99.402344 223.128906 C 98.945312 223.128906 98.589844 223.382812 98.589844 223.6875 Z M 98.589844 223.6875 " fill-opacity="1" fill-rule="nonzero"/><path fill="#560e0e" d="M 92.449219 224.753906 C 92.296875 225.058594 92.703125 225.261719 93.515625 225.261719 C 94.226562 225.261719 94.886719 225.058594 94.886719 224.753906 C 94.886719 224.449219 94.378906 224.195312 93.820312 224.195312 C 93.261719 224.195312 92.652344 224.449219 92.449219 224.753906 Z M 92.449219 224.753906 " fill-opacity="1" fill-rule="nonzero"/><path fill="#560e0e" d="M 83.414062 225.261719 C 83.261719 225.515625 83.363281 225.871094 83.617188 226.074219 C 83.917969 226.226562 84.273438 226.125 84.425781 225.871094 C 84.628906 225.566406 84.527344 225.210938 84.222656 225.058594 C 83.96875 224.855469 83.617188 224.957031 83.414062 225.261719 Z M 83.414062 225.261719 " fill-opacity="1" fill-rule="nonzero"/><path fill="#560e0e" d="M 87.929688 225.515625 C 87.929688 226.023438 88.386719 226.328125 89.046875 226.328125 C 90.316406 226.328125 90.164062 225.109375 88.84375 224.855469 C 88.285156 224.753906 87.929688 225.007812 87.929688 225.515625 Z M 87.929688 225.515625 " fill-opacity="1" fill-rule="nonzero"/><path fill="#560e0e" d="M 88.183594 230.695312 C 87.777344 231.304688 88.945312 232.320312 89.65625 231.863281 C 89.859375 231.761719 90.0625 231.253906 90.0625 230.847656 C 90.0625 229.933594 88.691406 229.832031 88.183594 230.695312 Z M 88.183594 230.695312 " fill-opacity="1" fill-rule="nonzero"/><path fill="#560e0e" d="M 92.753906 230.898438 C 92.753906 231.304688 93.109375 231.660156 93.515625 231.660156 C 93.972656 231.660156 94.328125 231.304688 94.328125 230.898438 C 94.328125 230.441406 93.972656 230.085938 93.515625 230.085938 C 93.109375 230.085938 92.753906 230.441406 92.753906 230.898438 Z M 92.753906 230.898438 " fill-opacity="1" fill-rule="nonzero"/><path fill="#560e0e" d="M 84.476562 231.660156 C 84.273438 231.964844 84.527344 232.21875 84.984375 232.21875 C 85.441406 232.21875 85.796875 231.964844 85.796875 231.660156 C 85.796875 231.40625 85.59375 231.152344 85.289062 231.152344 C 85.035156 231.152344 84.628906 231.40625 84.476562 231.660156 Z M 84.476562 231.660156 " fill-opacity="1" fill-rule="nonzero"/><path fill="#560e0e" d="M 133.773438 235.824219 C 133.316406 235.976562 132.046875 236.785156 130.980469 237.648438 L 128.949219 239.222656 L 126.460938 237.597656 C 123.621094 235.722656 122.757812 235.570312 122.453125 236.886719 C 122.148438 238.511719 122.910156 242.21875 123.824219 243.640625 C 124.738281 245.011719 124.839844 245.011719 128.847656 244.707031 C 132.300781 244.402344 133.570312 244.554688 136.464844 245.519531 C 141.285156 247.144531 147.125 250.390625 153.015625 254.605469 C 155.753906 256.585938 158.089844 258.160156 158.191406 258.058594 C 158.496094 257.753906 154.082031 253.894531 150.628906 251.507812 C 146.109375 248.3125 141.082031 245.46875 136.921875 243.742188 L 133.417969 242.269531 L 134.433594 239.324219 C 135.449219 236.328125 135.246094 235.316406 133.773438 235.824219 Z M 126.867188 239.730469 C 127.273438 240.542969 127.222656 240.847656 126.5625 241.101562 C 125.601562 241.457031 124.738281 240.492188 124.738281 239.019531 C 124.6875 237.851562 126.109375 238.359375 126.867188 239.730469 Z M 130.878906 241.152344 C 130.371094 241.660156 129.914062 240.847656 130.371094 240.136719 C 130.675781 239.578125 130.828125 239.578125 130.980469 240.136719 C 131.132812 240.492188 131.082031 240.949219 130.878906 241.152344 Z M 130.878906 241.152344 " fill-opacity="1" fill-rule="nonzero"/><path fill="#560e0e" d="M 113.515625 242.625 C 112.855469 243.4375 112.90625 243.640625 113.820312 244.300781 C 114.582031 244.859375 115.597656 245.011719 117.78125 244.707031 C 119.40625 244.554688 121.03125 244.199219 121.4375 243.996094 C 122.707031 243.285156 120.523438 242.167969 117.324219 241.914062 C 114.886719 241.761719 114.125 241.914062 113.515625 242.625 Z M 113.515625 242.625 " fill-opacity="1" fill-rule="nonzero"/><path fill="#560e0e" d="M 121.234375 246.078125 C 120.726562 246.6875 120.472656 247.144531 120.675781 247.144531 C 121.4375 247.144531 123.113281 246.027344 123.113281 245.519531 C 123.113281 244.707031 122.300781 244.960938 121.234375 246.078125 Z M 121.234375 246.078125 " fill-opacity="1" fill-rule="nonzero"/><path fill="#560e0e" d="M 123.113281 247.652344 C 121.386719 248.109375 118.441406 250.796875 117.171875 253.132812 C 116.15625 255.0625 118.59375 254.097656 120.980469 251.660156 C 122.300781 250.339844 123.519531 249.277344 123.722656 249.277344 C 123.976562 249.277344 125.042969 250.949219 126.160156 252.980469 C 127.273438 255.0625 128.289062 256.738281 128.441406 256.738281 C 128.59375 256.738281 129.304688 255.46875 130.066406 253.945312 C 130.929688 252.117188 131.742188 251.101562 132.453125 251 C 133.011719 250.898438 134.839844 251.660156 136.414062 252.675781 C 138.953125 254.25 139.460938 254.402344 139.816406 253.691406 C 141.386719 250.949219 135.652344 247.601562 129 247.347656 C 126.765625 247.246094 124.128906 247.398438 123.113281 247.652344 Z M 128.898438 249.226562 C 129.457031 249.582031 129.507812 249.886719 128.949219 250.898438 L 128.289062 252.117188 L 127.375 250.847656 C 126.007812 249.023438 126.96875 248.007812 128.898438 249.226562 Z M 128.898438 249.226562 " fill-opacity="1" fill-rule="nonzero"/><path fill="#560e0e" d="M 110.472656 248.871094 C 109.8125 249.175781 109.253906 249.886719 109.253906 250.441406 C 109.253906 251.761719 111.894531 251.761719 113.566406 250.441406 C 115.699219 248.667969 113.363281 247.449219 110.472656 248.871094 Z M 110.472656 248.871094 " fill-opacity="1" fill-rule="nonzero"/><path fill="#560e0e" d="M 195.964844 242.167969 C 195.304688 242.828125 195.609375 243.386719 196.675781 243.386719 C 197.28125 243.386719 197.738281 243.03125 197.738281 242.625 C 197.738281 241.8125 196.625 241.507812 195.964844 242.167969 Z M 195.964844 242.167969 " fill-opacity="1" fill-rule="nonzero"/><path fill="#560e0e" d="M 239.925781 245.519531 C 233.886719 248.464844 232.71875 248.71875 231.855469 247.144531 C 229.925781 243.539062 225.660156 244.25 227.082031 248.007812 C 227.84375 250.039062 227.335938 250.289062 224.140625 249.582031 C 219.367188 248.464844 219.976562 250.089844 225.152344 252.21875 C 227.132812 253.03125 227.285156 253.03125 228.757812 251.964844 C 229.621094 251.304688 230.839844 250.898438 231.449219 250.949219 C 232.464844 251.101562 232.210938 251.40625 229.925781 252.878906 C 228.453125 253.84375 226.878906 254.605469 226.421875 254.605469 C 226.015625 254.605469 225.105469 255.214844 224.394531 255.925781 C 222.972656 257.449219 223.53125 257.703125 225.355469 256.433594 C 227.234375 255.113281 227.335938 255.875 225.8125 259.328125 C 225.054688 261.054688 224.394531 262.628906 224.394531 262.78125 C 224.394531 264.203125 227.03125 261.15625 229.519531 256.839844 C 229.570312 256.738281 230.484375 257.042969 231.601562 257.5 C 234.140625 258.566406 234.902344 258.566406 235.207031 257.398438 C 235.308594 256.890625 235.613281 257.449219 235.867188 258.71875 C 236.070312 259.9375 236.679688 261.359375 237.238281 261.867188 C 238.203125 262.730469 238.253906 262.730469 238.253906 261.511719 C 238.253906 260.800781 238 259.277344 237.746094 258.160156 L 237.289062 256.078125 L 240.433594 256.433594 C 242.972656 256.738281 243.582031 256.636719 243.582031 256.027344 C 243.582031 255.011719 239.824219 253.539062 237.136719 253.539062 C 235.410156 253.539062 234.902344 253.742188 234.699219 254.554688 C 234.445312 255.417969 234.191406 255.519531 232.820312 255.011719 C 231.398438 254.503906 231.347656 254.402344 232.109375 253.539062 C 232.617188 253.03125 234.597656 251.8125 236.527344 250.847656 C 239.367188 249.429688 239.875 249.023438 239.015625 248.71875 C 238.203125 248.464844 239.015625 247.90625 242.667969 246.128906 C 245.257812 244.910156 247.1875 243.691406 247.035156 243.386719 C 246.476562 242.523438 245.511719 242.828125 239.925781 245.519531 Z M 230.789062 248.160156 C 230.789062 248.414062 230.433594 248.769531 229.976562 248.921875 C 229.519531 249.125 229.214844 248.921875 229.214844 248.464844 C 229.214844 248.007812 229.570312 247.652344 229.976562 247.652344 C 230.433594 247.652344 230.789062 247.90625 230.789062 248.160156 Z M 230.789062 248.160156 " fill-opacity="1" fill-rule="nonzero"/><path fill="#560e0e" d="M 198.5 246.992188 C 197.890625 247.601562 197.789062 247.957031 198.195312 248.109375 C 198.90625 248.3125 200.429688 247.296875 200.429688 246.535156 C 200.429688 245.773438 199.464844 246.027344 198.5 246.992188 Z M 198.5 246.992188 " fill-opacity="1" fill-rule="nonzero"/><path fill="#560e0e" d="M 186.773438 247.195312 C 186.570312 247.5 186.671875 248.007812 186.976562 248.3125 C 187.332031 248.667969 187.6875 248.515625 188.09375 247.753906 C 188.601562 246.839844 188.550781 246.585938 187.941406 246.585938 C 187.484375 246.585938 186.976562 246.890625 186.773438 247.195312 Z M 186.773438 247.195312 " fill-opacity="1" fill-rule="nonzero"/><path fill="#560e0e" d="M 193.222656 248.71875 C 193.019531 249.023438 193.121094 249.277344 193.425781 249.277344 C 193.730469 249.277344 194.035156 249.785156 194.035156 250.441406 C 194.035156 251.304688 194.1875 251.457031 194.59375 251.050781 C 194.898438 250.695312 195 249.9375 194.847656 249.328125 C 194.441406 248.109375 193.730469 247.855469 193.222656 248.71875 Z M 193.222656 248.71875 " fill-opacity="1" fill-rule="nonzero"/><path fill="#560e0e" d="M 202.664062 249.074219 C 201.648438 249.53125 201.902344 250.339844 203.070312 250.339844 C 203.679688 250.339844 204.136719 249.988281 204.136719 249.53125 C 204.136719 248.71875 203.832031 248.617188 202.664062 249.074219 Z M 202.664062 249.074219 " fill-opacity="1" fill-rule="nonzero"/><path fill="#560e0e" d="M 188.753906 252.117188 C 186.824219 254.148438 187.738281 255.011719 189.769531 252.980469 C 190.835938 251.914062 191.140625 250.847656 190.378906 250.847656 C 190.125 250.847656 189.414062 251.40625 188.753906 252.117188 Z M 188.753906 252.117188 " fill-opacity="1" fill-rule="nonzero"/><path fill="#560e0e" d="M 183.015625 253.589844 C 182.003906 254.707031 182.054688 254.707031 183.320312 254.503906 C 184.082031 254.402344 184.742188 253.945312 184.84375 253.386719 C 185.097656 252.167969 184.285156 252.21875 183.015625 253.589844 Z M 183.015625 253.589844 " fill-opacity="1" fill-rule="nonzero"/><path fill="#560e0e" d="M 197.738281 253.539062 C 197.230469 254.453125 197.332031 254.605469 198.246094 254.605469 C 199.007812 254.605469 199.363281 254.25 199.363281 253.539062 C 199.363281 252.929688 199.109375 252.472656 198.804688 252.472656 C 198.550781 252.472656 198.042969 252.929688 197.738281 253.539062 Z M 197.738281 253.539062 " fill-opacity="1" fill-rule="nonzero"/><path fill="#560e0e" d="M 218.910156 254.707031 C 217.4375 255.214844 216.980469 256.382812 217.996094 256.992188 C 218.605469 257.398438 222.820312 255.164062 222.820312 254.503906 C 222.820312 253.945312 220.738281 254.046875 218.910156 254.707031 Z M 218.910156 254.707031 " fill-opacity="1" fill-rule="nonzero"/><path fill="#560e0e" d="M 218.65625 261.917969 C 217.03125 263.542969 217.894531 264.402344 219.621094 262.882812 C 220.28125 262.222656 221.042969 262.070312 221.957031 262.273438 C 223.074219 262.578125 223.328125 262.425781 223.328125 261.5625 C 223.328125 259.886719 220.433594 260.089844 218.65625 261.917969 Z M 218.65625 261.917969 " fill-opacity="1" fill-rule="nonzero"/><path fill="#560e0e" d="M 229.46875 309.484375 C 221.09375 310.753906 214.949219 312.023438 210.890625 313.34375 C 207.082031 314.5625 201.242188 317.507812 199.363281 319.132812 C 197.738281 320.503906 197.890625 320.453125 203.628906 317.660156 C 208.808594 315.121094 216.777344 312.785156 227.082031 310.855469 C 239.265625 308.519531 240.332031 307.910156 229.46875 309.484375 Z M 229.46875 309.484375 " fill-opacity="1" fill-rule="nonzero"/><path fill="#560e0e" d="M 203.273438 203.433594 C 196.066406 204.753906 186.875 209.269531 183.675781 213.078125 C 179.363281 218.15625 178.957031 225.921875 182.863281 228.664062 C 184.488281 229.78125 184.589844 229.578125 183.625 227.242188 C 182.511719 224.601562 182.613281 219.679688 183.828125 216.988281 C 185.046875 214.347656 187.839844 211.859375 189.109375 212.316406 C 189.617188 212.519531 190.886719 213.332031 191.953125 214.195312 C 198.042969 218.917969 203.171875 218.96875 209.46875 214.347656 C 210.890625 213.332031 213.375 212.011719 214.949219 211.453125 C 219.011719 210.082031 220.128906 209.421875 220.636719 208.050781 C 221.246094 206.378906 220.484375 205.3125 217.894531 204.246094 C 215.152344 203.179688 207.234375 202.722656 203.273438 203.433594 Z M 216.828125 205.921875 C 219.621094 206.429688 218.707031 207.699219 213.984375 210.082031 C 211.648438 211.25 208.910156 212.875 207.894531 213.636719 C 202.511719 217.648438 195.863281 216.683594 191.953125 211.453125 L 190.785156 209.878906 L 192.308594 209.066406 C 198.703125 205.769531 208.65625 204.5 216.828125 205.921875 Z M 216.828125 205.921875 " fill-opacity="1" fill-rule="nonzero"/><path fill="#560e0e" d="M 202.5625 209.625 C 194.644531 210.742188 193.882812 210.996094 194.796875 211.910156 C 195.355469 212.46875 196.421875 212.722656 197.992188 212.671875 C 200.53125 212.570312 207.691406 210.488281 208.199219 209.726562 C 208.453125 209.320312 205.253906 209.21875 202.5625 209.625 Z M 202.5625 209.625 " fill-opacity="1" fill-rule="nonzero"/><path fill="#560e0e" d="M 305.824219 220.542969 C 304.453125 221.304688 304.65625 222.976562 306.230469 223.992188 C 308.007812 225.160156 310.238281 224.296875 310.238281 222.46875 C 310.238281 220.238281 308.007812 219.273438 305.824219 220.542969 Z M 305.824219 220.542969 " fill-opacity="1" fill-rule="nonzero"/><path fill="#560e0e" d="M 318.769531 228.917969 C 318.769531 231.152344 317.601562 233.132812 315.875 233.792969 C 314.859375 234.199219 314.910156 234.300781 316.789062 235.0625 C 319.378906 236.175781 319.277344 236.175781 319.277344 234.910156 C 319.277344 233.539062 321.5625 232.929688 323.644531 233.691406 C 324.503906 234.046875 325.265625 234.046875 325.417969 233.792969 C 325.875 233.03125 325.214844 232.21875 323.746094 231.660156 C 322.984375 231.40625 322.476562 230.746094 322.476562 230.136719 C 322.476562 229.171875 320.191406 226.886719 319.226562 226.886719 C 318.972656 226.886719 318.769531 227.800781 318.769531 228.917969 Z M 318.769531 228.917969 " fill-opacity="1" fill-rule="nonzero"/><path fill="#560e0e" d="M 353.644531 229.273438 C 351.972656 230.898438 351.972656 231.40625 353.746094 233.03125 C 355.726562 234.910156 359.28125 235.011719 361.058594 233.335938 C 362.480469 231.914062 361.71875 230.1875 359.078125 228.96875 C 356.132812 227.648438 355.21875 227.699219 353.644531 229.273438 Z M 358.164062 230.59375 C 358.773438 231 358.824219 231.253906 358.367188 231.710938 C 357.707031 232.371094 354.253906 231.558594 353.644531 230.59375 C 353.238281 229.933594 357.148438 229.933594 358.164062 230.59375 Z M 358.164062 230.59375 " fill-opacity="1" fill-rule="nonzero"/><path fill="#560e0e" d="M 48.738281 229.222656 C 47.875 229.882812 47.824219 230.1875 48.382812 231.355469 C 49.195312 233.234375 50.566406 233.742188 51.480469 232.472656 C 52.496094 231.152344 52.394531 229.222656 51.378906 228.816406 C 50.160156 228.359375 49.855469 228.410156 48.738281 229.222656 Z M 48.738281 229.222656 " fill-opacity="1" fill-rule="nonzero"/><path fill="#560e0e" d="M 341.257812 237.902344 C 340.902344 238.054688 340.191406 238.867188 339.734375 239.78125 C 338.769531 241.609375 339.277344 242.472656 341.664062 243.335938 C 343.035156 243.792969 343.492188 243.691406 344.863281 242.523438 C 345.726562 241.8125 346.488281 240.847656 346.488281 240.441406 C 346.488281 239.121094 342.730469 237.34375 341.257812 237.902344 Z M 343.796875 241.050781 C 343.796875 241.457031 343.59375 241.8125 343.339844 241.8125 C 342.679688 241.8125 341.613281 240.441406 341.96875 240.085938 C 342.527344 239.527344 343.796875 240.289062 343.796875 241.050781 Z M 343.796875 241.050781 " fill-opacity="1" fill-rule="nonzero"/><path fill="#560e0e" d="M 315.773438 239.628906 C 312.269531 241.761719 309.125 247.195312 308.261719 252.675781 C 307.957031 254.65625 308.007812 254.808594 308.769531 254.199219 C 309.378906 253.640625 310.847656 253.539062 314.300781 253.742188 L 319.023438 254.046875 L 315.417969 252.878906 C 310.796875 251.304688 310.441406 251 311.304688 248.414062 C 312.167969 245.722656 314.097656 243.183594 316.738281 241.253906 C 319.378906 239.324219 320.902344 239.273438 322.832031 240.949219 C 324.707031 242.574219 324.707031 245.113281 322.78125 248.566406 C 322.019531 249.9375 321.460938 251.101562 321.613281 251.253906 C 322.121094 251.761719 325.113281 247.5 325.417969 245.824219 C 326.433594 240.492188 320.546875 236.734375 315.773438 239.628906 Z M 315.773438 239.628906 " fill-opacity="1" fill-rule="nonzero"/><path fill="#560e0e" d="M 329.9375 250.089844 C 326.28125 250.847656 318.464844 253.488281 319.835938 253.539062 C 320.242188 253.539062 321.460938 253.285156 322.476562 253.03125 C 324.757812 252.371094 331.003906 251.507812 331.003906 251.8125 C 331.003906 251.914062 330.546875 252.726562 329.9375 253.539062 C 327.703125 256.6875 327.09375 260.648438 328.363281 263.695312 C 329.378906 266.179688 329.9375 265.570312 329.9375 261.917969 C 329.9375 259.125 330.191406 258.109375 331.460938 256.128906 C 332.984375 253.742188 335.269531 251.710938 337.859375 250.339844 C 341.460938 248.515625 345.523438 256.636719 343.238281 261.105469 C 342.882812 261.765625 341.765625 263.238281 340.699219 264.351562 C 338.667969 266.484375 339.074219 266.839844 341.96875 265.46875 C 344.101562 264.453125 345.929688 261.054688 345.929688 258.058594 C 345.929688 255.316406 344 251.507812 341.96875 250.289062 C 339.988281 249.074219 335.21875 249.023438 329.9375 250.089844 Z M 329.9375 250.089844 " fill-opacity="1" fill-rule="nonzero"/><path fill="#560e0e" d="M 356.082031 270.140625 C 356.082031 271.511719 356.996094 272.273438 358.265625 272.121094 C 359.128906 271.96875 359.535156 271.5625 359.535156 270.851562 C 359.535156 270.039062 359.128906 269.734375 357.808594 269.632812 C 356.640625 269.53125 356.082031 269.683594 356.082031 270.140625 Z M 356.082031 270.140625 " fill-opacity="1" fill-rule="nonzero"/><path fill="#560e0e" d="M 331.917969 272.222656 C 330.34375 273.441406 330.140625 274.914062 331.054688 278.0625 C 331.5625 279.683594 331.511719 280.34375 330.75 281.765625 C 329.277344 284.609375 330.292969 284.304688 333.390625 280.953125 C 336.945312 277.097656 337.707031 275.421875 337.046875 273.136719 C 336.640625 271.714844 336.234375 271.359375 334.964844 271.257812 C 333.949219 271.15625 332.832031 271.511719 331.917969 272.222656 Z M 335.472656 272.882812 C 336.03125 274.914062 335.828125 276.84375 335.015625 277.503906 C 334 278.367188 333.289062 277.859375 332.882812 276.03125 C 332.222656 272.984375 334.710938 269.9375 335.472656 272.882812 Z M 335.472656 272.882812 " fill-opacity="1" fill-rule="nonzero"/><path fill="#560e0e" d="M 1.574219 276.386719 C 0.710938 277.25 0 278.367188 0 278.871094 C 0 281.714844 3.453125 283.441406 6.550781 282.121094 C 10.917969 280.292969 10.105469 276.03125 5.179688 275.117188 C 3.453125 274.8125 2.996094 274.964844 1.574219 276.386719 Z M 6.042969 278.011719 C 7.3125 279.378906 6.804688 280.699219 5.027344 280.699219 C 3.503906 280.699219 2.386719 278.667969 2.945312 276.945312 C 3.300781 275.777344 4.367188 276.183594 6.042969 278.011719 Z M 6.042969 278.011719 " fill-opacity="1" fill-rule="nonzero"/><path fill="#560e0e" d="M 344.558594 286.082031 C 344.40625 286.386719 344.507812 286.945312 344.8125 287.351562 C 345.269531 287.859375 345.167969 288.621094 344.609375 290.246094 C 343.695312 292.832031 344.253906 293.085938 346.539062 291.109375 C 347.453125 290.347656 348.824219 289.789062 349.6875 289.789062 C 350.550781 289.789062 351.261719 289.585938 351.261719 289.332031 C 351.261719 288.570312 349.484375 287.199219 347.402344 286.335938 C 345.066406 285.371094 345.015625 285.371094 344.558594 286.082031 Z M 344.558594 286.082031 " fill-opacity="1" fill-rule="nonzero"/><path fill="#560e0e" d="M 10.460938 294.253906 C 5.28125 296.183594 3.148438 301.109375 6.398438 303.851562 C 10.410156 307.25 16.09375 305.984375 18.582031 301.160156 C 20.003906 298.316406 18.226562 294.050781 15.585938 294.050781 C 15.078125 294.050781 14.164062 293.949219 13.554688 293.796875 C 13 293.644531 11.578125 293.847656 10.460938 294.253906 Z M 14.875 296.691406 C 15.992188 297.25 17.007812 298.0625 17.160156 298.46875 C 17.617188 299.585938 16.246094 302.277344 14.417969 303.800781 C 12.339844 305.527344 10.207031 305.628906 8.328125 304.15625 C 5.839844 302.226562 6.652344 298.011719 9.851562 296.285156 C 11.375 295.421875 12.542969 295.523438 14.875 296.691406 Z M 14.875 296.691406 " fill-opacity="1" fill-rule="nonzero"/><path fill="#560e0e" d="M 342.730469 294.863281 C 342.730469 296.03125 344.050781 296.386719 345.472656 295.625 C 346.640625 294.964844 346.691406 294.914062 345.675781 294.558594 C 343.898438 293.847656 342.730469 294 342.730469 294.863281 Z M 342.730469 294.863281 " fill-opacity="1" fill-rule="nonzero"/><path fill="#560e0e" d="M 366.238281 294.964844 C 366.238281 295.625 366.339844 295.675781 366.539062 295.167969 C 366.792969 294.609375 366.945312 294.609375 367.300781 295.167969 C 367.503906 295.574219 367.859375 295.726562 368.0625 295.523438 C 368.570312 295.015625 367.859375 294.050781 366.945312 294.050781 C 366.539062 294.050781 366.1875 294.457031 366.238281 294.964844 Z M 366.238281 294.964844 " fill-opacity="1" fill-rule="nonzero"/><path fill="#560e0e" d="M 27.214844 306.289062 C 26.199219 306.894531 26.910156 308.417969 28.226562 308.417969 C 29.546875 308.417969 30.257812 306.894531 29.242188 306.289062 C 28.835938 305.984375 28.378906 305.78125 28.226562 305.78125 C 28.074219 305.78125 27.617188 305.984375 27.214844 306.289062 Z M 27.214844 306.289062 " fill-opacity="1" fill-rule="nonzero"/><path fill="#560e0e" d="M 19.546875 315.171875 C 18.175781 316.542969 20.5625 318.472656 22.136719 317.253906 C 23 316.644531 23 316.441406 22.390625 315.679688 C 21.679688 314.816406 20.15625 314.5625 19.546875 315.171875 Z M 19.546875 315.171875 " fill-opacity="1" fill-rule="nonzero"/><path fill="#560e0e" d="M 236.984375 338.574219 C 236.578125 339.640625 238.609375 340.707031 239.570312 339.894531 C 239.976562 339.539062 240.179688 338.929688 240.027344 338.523438 C 239.621094 337.507812 237.390625 337.558594 236.984375 338.574219 Z M 236.984375 338.574219 " fill-opacity="1" fill-rule="nonzero"/><path fill="#560e0e" d="M 139.613281 342.585938 C 139.15625 343.5 139.207031 343.90625 139.96875 344.71875 C 141.640625 346.597656 144.992188 345.785156 144.992188 343.550781 C 144.992188 341.46875 140.625 340.707031 139.613281 342.585938 Z M 139.613281 342.585938 " fill-opacity="1" fill-rule="nonzero"/></svg>